<?xml version="1.0" encoding="UTF-8"?>
<svg version="1.1" xmlns="http://www.w3.org/2000/svg" width="211" height="228">
<path d="M0 0 C3.57139894 2.15432041 6.96794806 4.53381447 10.375 6.9375 C12.33146968 8.29508049 14.28850901 9.65184038 16.24609375 11.0078125 C17.21530762 11.68231445 18.18452148 12.35681641 19.18310547 13.05175781 C23.23551543 15.85451665 27.33129593 18.58940526 31.4375 21.3125 C32.17073486 21.79960449 32.90396973 22.28670898 33.65942383 22.78857422 C35.09010986 23.73894132 36.52101174 24.68898356 37.95214844 25.63867188 C39.92138551 26.9477403 41.88717496 28.26179326 43.8515625 29.578125 C49.63381798 33.45060311 55.43251942 37.29094363 61.28662109 41.05419922 C67.87482124 45.29128685 74.43889516 49.56402085 80.9375 53.9375 C81.61804443 54.38601318 82.29858887 54.83452637 82.99975586 55.29663086 C88.82518182 59.25624607 88.82518182 59.25624607 90 63 C90.56517408 66.79474027 90.33050256 68.46140324 88.3125 71.75 C84.63321576 75.08702524 79.59739885 75.10448484 74.86328125 75.640625 C72.06040481 75.83132047 72.06040481 75.83132047 70 77 C70.00222061 77.91232895 70.00444122 78.8246579 70.00672913 79.76463318 C70.02672928 88.34383277 70.04197272 96.92302458 70.05181217 105.50224209 C70.05704069 109.91337004 70.06413777 114.3244788 70.07543945 118.7355957 C70.08626944 122.98901115 70.09227707 127.24240809 70.09487724 131.49583626 C70.09673129 133.12221633 70.10035152 134.74859534 70.10573006 136.37496758 C70.11294198 138.64510193 70.11399088 140.91515885 70.11352539 143.18530273 C70.115746 144.47991928 70.11796661 145.77453583 70.12025452 147.10838318 C70 150 70 150 69 151 C49.65311747 151.99214782 49.65311747 151.99214782 42 148 C41.32987376 133.68852744 40.9486646 119.41270972 41.0390625 105.0859375 C41.04496399 103.96873322 41.05086548 102.85152893 41.0569458 101.70046997 C41.08882217 96.06305797 41.13880789 90.42656375 41.21289062 84.78955078 C41.22842101 82.68262122 41.24341827 80.57568763 41.2578125 78.46875 C41.27647369 77.50109711 41.29513489 76.53344421 41.31436157 75.53646851 C41.33685374 69.57604422 40.88416516 64.95526866 36.50463867 60.46777344 C35.9810376 60.10200195 35.45743652 59.73623047 34.91796875 59.359375 C34.32338867 58.93414551 33.72880859 58.50891602 33.11621094 58.07080078 C32.47973633 57.63493652 31.84326172 57.19907227 31.1875 56.75 C30.51879883 56.27675293 29.85009766 55.80350586 29.16113281 55.31591797 C27.77881797 54.33865201 26.39288668 53.36648168 25.00341797 52.39941406 C23.17803251 51.12435807 21.36888361 49.83058965 19.56640625 48.5234375 C16.06475504 45.98619575 12.53819171 43.48599558 9 41 C8.20883789 40.44393066 7.41767578 39.88786133 6.60253906 39.31494141 C4.03205345 37.51462224 1.45465171 35.72465529 -1.125 33.9375 C-2.35234863 33.07825928 -2.35234863 33.07825928 -3.60449219 32.20166016 C-4.37696289 31.66976074 -5.14943359 31.13786133 -5.9453125 30.58984375 C-6.63125488 30.11409912 -7.31719727 29.63835449 -8.02392578 29.14819336 C-10.13664786 27.92060108 -11.55814702 27.20153208 -14 27 C-16.29287538 28.03563179 -16.29287538 28.03563179 -18.5703125 29.7265625 C-19.4581543 30.34015625 -20.34599609 30.95375 -21.26074219 31.5859375 C-22.20594727 32.25882813 -23.15115234 32.93171875 -24.125 33.625 C-25.10114258 34.305625 -26.07728516 34.98625 -27.08300781 35.6875 C-30.06695664 37.77577898 -33.03604451 39.88345862 -36 42 C-36.86786133 42.6197168 -37.73572266 43.23943359 -38.62988281 43.87792969 C-42.46972516 46.62847658 -46.29590093 49.39662272 -50.109375 52.18359375 C-54.08149377 55.07985009 -58.13672948 57.84296357 -62.25 60.53515625 C-64.72510548 62.60695213 -65.83653858 64.75790046 -66.25891972 67.96746159 C-66.26315166 68.66044063 -66.26738359 69.35341967 -66.27174377 70.06739807 C-66.2814621 70.86790588 -66.29118042 71.6684137 -66.30119324 72.49317932 C-66.30178238 73.36240524 -66.30237152 74.23163116 -66.30297852 75.12719727 C-66.31563751 76.51072891 -66.31563751 76.51072891 -66.32855225 77.92221069 C-66.35433761 80.97028111 -66.36647186 84.01825469 -66.37890625 87.06640625 C-66.39507926 89.18343372 -66.41225904 91.30045373 -66.43040466 93.41746521 C-66.47610695 98.99100291 -66.51090472 104.56455055 -66.54260254 110.13818359 C-66.59446421 119.06348155 -66.65956702 127.98866967 -66.73081779 136.91383171 C-66.7536789 140.03536381 -66.76993169 143.1568819 -66.78553772 146.27845764 C-66.79894278 148.18637242 -66.81255745 150.09428573 -66.82641602 152.00219727 C-66.83033607 153.30907249 -66.83033607 153.30907249 -66.83433533 154.64234924 C-66.86342289 158.00580545 -66.92912208 160.78736623 -68 164 C-69.91772461 165.16674805 -69.91772461 165.16674805 -72.40234375 166.26171875 C-73.73749023 166.85629883 -73.73749023 166.85629883 -75.09960938 167.46289062 C-76.50436523 168.06907227 -76.50436523 168.06907227 -77.9375 168.6875 C-78.87013672 169.10322266 -79.80277344 169.51894531 -80.76367188 169.94726562 C-87.69623615 173 -87.69623615 173 -90 173 C-90.33 173.66 -90.66 174.32 -91 175 C-92.9375 174.1875 -92.9375 174.1875 -95 173 C-96.32705566 169.01883301 -96.17779297 165.1831785 -96.20532227 161.03051758 C-96.21522186 160.11324387 -96.22512146 159.19597015 -96.23532104 158.25090027 C-96.2669378 155.21547029 -96.29169423 152.18002465 -96.31640625 149.14453125 C-96.33697562 147.04131155 -96.35797209 144.93809598 -96.37937927 142.83488464 C-96.43460167 137.29634956 -96.48401025 131.75777716 -96.53222656 126.21917725 C-96.58244033 120.56861038 -96.63812705 114.91809777 -96.69335938 109.26757812 C-96.80094302 98.17843176 -96.90238758 87.0892383 -97 76 C-98.1290979 75.91020874 -98.1290979 75.91020874 -99.28100586 75.81860352 C-100.76419312 75.69376587 -100.76419312 75.69376587 -102.27734375 75.56640625 C-103.25695068 75.48592041 -104.23655762 75.40543457 -105.24584961 75.32250977 C-108.85522504 74.89985353 -111.13457728 74.2776437 -114 72 C-115.41838418 69.33979399 -116.22208799 67.01933906 -116 64 C-113.24854916 59.08036878 -110.02580861 56.26075931 -105.3203125 53.3359375 C-103.97146959 52.46744861 -102.62284522 51.59862024 -101.27441406 50.72949219 C-100.57304321 50.28311401 -99.87167236 49.83673584 -99.14904785 49.37683105 C-95.56607076 47.08132417 -92.03183207 44.71310901 -88.4921875 42.3515625 C-87.06007545 41.39946935 -85.62778328 40.44764708 -84.1953125 39.49609375 C-83.48536133 39.02413574 -82.77541016 38.55217773 -82.04394531 38.06591797 C-80.58060885 37.09376446 -79.11672879 36.12242877 -77.65234375 35.15185547 C-75.49333318 33.72060662 -73.33633059 32.28637544 -71.1796875 30.8515625 C-70.53071503 30.42235504 -69.88174255 29.99314758 -69.21310425 29.55093384 C-65.6637057 27.18496023 -62.32689701 24.67510705 -59 22 C-57.29410547 21.0169082 -55.58725717 20.03512553 -53.86523438 19.08056641 C-50.52785518 17.14715799 -47.40635449 14.89979378 -44.25 12.6875 C-37.92654593 8.30359891 -31.58622711 3.98412755 -25 0 C-23.94425781 -0.66708984 -23.94425781 -0.66708984 -22.8671875 -1.34765625 C-15.16953723 -5.80021866 -7.74456538 -3.63620859 0 0 Z " fill="#162B54" transform="translate(116,12)"/>
<path d="M0 0 C0 1.32 0 2.64 0 4 C0.66 4 1.32 4 2 4 C2.103125 3.401875 2.20625 2.80375 2.3125 2.1875 C3.15837626 -0.50392446 3.65563224 -1.4009242 6 -3 C8.71150693 -2.96960194 11.08967419 -2.77463874 13.75 -2.375 C14.49991211 -2.2716333 15.24982422 -2.1682666 16.02246094 -2.06176758 C18.35207558 -1.72928051 20.67563532 -1.36723782 23 -1 C23.72058594 -0.89381348 24.44117187 -0.78762695 25.18359375 -0.67822266 C27.21100285 -0.37382813 29.23005146 -0.03771252 31.25 0.3125 C32.43078125 0.51488281 33.6115625 0.71726562 34.828125 0.92578125 C38.77251715 2.26162835 40.37914867 3.77397874 43 7 C43.59936523 10.33398437 43.59936523 10.33398437 43.55859375 14.09375 C43.55509666 15.09746643 43.55509666 15.09746643 43.55152893 16.12145996 C43.54182559 17.53015979 43.52011651 18.9388226 43.48706055 20.34716797 C43.43764372 22.49375721 43.42557604 24.63804931 43.41992188 26.78515625 C43.29901724 38.57417464 43.29901724 38.57417464 41 43 C38.36817937 44.25249295 35.90441332 44.48470086 33 45 C34.093125 45.0825 35.18625 45.165 36.3125 45.25 C40 46 40 46 41.70117188 47.63696289 C44.18666366 52.15896946 43.51822061 57.36904164 43.50097656 62.41723633 C43.50000425 64.42870326 43.54163877 66.43634935 43.5859375 68.44726562 C43.58980469 70.35862305 43.58980469 70.35862305 43.59375 72.30859375 C43.60083984 73.47189209 43.60792969 74.63519043 43.61523438 75.83374023 C42.79319834 80.06428998 41.48062266 81.49422914 38 84 C35.2369476 84.46451371 33.10920404 84.63635223 30.36328125 84.55859375 C29.64262985 84.55626236 28.92197845 84.55393097 28.17948914 84.55152893 C26.6640531 84.54182454 25.14865154 84.52011331 23.63354492 84.48706055 C21.3091901 84.43742932 18.98694754 84.42556528 16.66210938 84.41992188 C15.18747738 84.40584326 13.7128638 84.3896415 12.23828125 84.37109375 C11.54245438 84.36573105 10.8466275 84.36036835 10.12971497 84.35484314 C5.23336509 84.23336509 5.23336509 84.23336509 3 82 C1.64120663 75.55239226 1.67296443 68.9419199 1.5625 62.375 C1.51673828 61.25609375 1.47097656 60.1371875 1.42382812 58.984375 C1.3135324 50.94717323 1.3135324 50.94717323 3.36669922 48.11425781 C5.02734375 46.7265625 5.02734375 46.7265625 8 45 C7.195625 44.113125 6.39125 43.22625 5.5625 42.3125 C1.43405179 37.7606212 1.78014956 32.05748019 1.4375 26.1875 C1.39431641 25.49462891 1.35113281 24.80175781 1.30664062 24.08789062 C1.20138547 22.39211314 1.10027137 20.69607948 1 19 C0.99589111 19.61520508 0.99178223 20.23041016 0.98754883 20.86425781 C0.95458704 23.66047231 0.88394424 26.45451504 0.8125 29.25 C0.80669922 30.21808594 0.80089844 31.18617187 0.79492188 32.18359375 C0.57436294 39.29049284 0.57436294 39.29049284 -2.125 42.625 C-5.50100149 44.23960941 -8.08019666 44.59919987 -11.8125 44.75 C-13.55466797 44.83507812 -13.55466797 44.83507812 -15.33203125 44.921875 C-16.21246094 44.94765625 -17.09289062 44.9734375 -18 45 C-16.10489301 44.91839252 -14.20875496 44.86053541 -12.3125 44.8125 C-11.25675781 44.77769531 -10.20101562 44.74289063 -9.11328125 44.70703125 C-5.60934385 45.03676187 -3.80301489 45.91415288 -1 48 C1.27763137 52.55526274 0.49997072 58.73921754 0.6875 63.75 C0.74744141 65.02617187 0.80738281 66.30234375 0.86914062 67.6171875 C0.91619141 68.85210937 0.96324219 70.08703125 1.01171875 71.359375 C1.08072388 73.05271973 1.08072388 73.05271973 1.15112305 74.78027344 C0.98824725 78.25039613 0.40501497 80.82570691 -1 84 C-5.86196181 86.77389005 -10.89051599 87.78822226 -16.375 88.6875 C-17.12233398 88.8127002 -17.86966797 88.93790039 -18.63964844 89.06689453 C-31.61496041 91.14283147 -31.61496041 91.14283147 -37 88.5625 C-39 87 -39 87 -40 86 C-40.13824552 83.39221285 -40.21313474 80.81280809 -40.23828125 78.203125 C-40.246353 77.4173407 -40.25442474 76.6315564 -40.26274109 75.82196045 C-40.27659949 74.15411598 -40.28731376 72.48624294 -40.29516602 70.81835938 C-40.31233677 68.27418623 -40.35619954 65.73132674 -40.40039062 63.1875 C-40.41052103 61.5677179 -40.41903604 59.94792473 -40.42578125 58.328125 C-40.44328934 57.56961243 -40.46079742 56.81109985 -40.47883606 56.02960205 C-40.45851302 51.04783405 -39.51831045 48.52919227 -36 45 C-36.64904297 44.49331787 -37.29808594 43.98663574 -37.96679688 43.46459961 C-40.63169439 40.23427535 -40.5785911 37.57441358 -40.53125 33.56640625 C-40.5350769 32.85145493 -40.53890381 32.1365036 -40.54284668 31.39988708 C-40.54556259 29.89117013 -40.53822364 28.38240583 -40.52148438 26.8737793 C-40.50009741 24.57297905 -40.52127608 22.27531187 -40.546875 19.97460938 C-40.54423105 18.50520148 -40.53910466 17.03579553 -40.53125 15.56640625 C-40.53934692 14.88292618 -40.54744385 14.19944611 -40.55578613 13.49525452 C-40.463363 8.74974758 -39.40250048 6.29451487 -36 3 C-33.46381578 2.0249977 -31.30958119 1.36211342 -28.6875 0.8125 C-27.98906982 0.65450928 -27.29063965 0.49651855 -26.57104492 0.33374023 C-24.38588952 -0.14336472 -22.1967345 -0.57961912 -20 -1 C-19.29649414 -1.13599609 -18.59298828 -1.27199219 -17.86816406 -1.41210938 C-4.51260973 -3.8837338 -4.51260973 -3.8837338 0 0 Z " fill="#E37532" transform="translate(102,79)"/>
<path d="M0 0 C0 0.66 0 1.32 0 2 C1.98 2.495 1.98 2.495 4 3 C4 3.66 4 4.32 4 5 C2.98091553 5.01458252 1.96183105 5.02916504 0.91186523 5.04418945 C-34.36859995 5.58606405 -69.95097171 6.83441886 -104 17 C-105.88138672 17.53560547 -105.88138672 17.53560547 -107.80078125 18.08203125 C-125.4018551 23.21138689 -144.13808122 30.26985956 -158.55859375 41.85546875 C-161.23484841 43.79431151 -161.69939452 44.01996642 -165.17578125 43.7890625 C-166.72845703 43.21285156 -166.72845703 43.21285156 -168.3125 42.625 C-169.42625 42.22023437 -170.54 41.81546875 -171.6875 41.3984375 C-176.24486694 39.47445476 -180.66680795 37.38667914 -185 35 C-185 31 -185 31 -183.59375 29.39453125 C-172.04074244 20.66511322 -159.78355734 14.36612105 -146 10 C-144.58978932 9.51708601 -143.17963735 9.03400054 -141.76953125 8.55078125 C-97.26252453 -6.2708697 -46.05769549 -9.33601936 0 0 Z " fill="#1C3B68" transform="translate(199,170)"/>
<path d="M0 0 C0.495 0.495 0.495 0.495 1 1 C3.00720923 0.71325582 5.0085944 0.38133299 7 0 C8.19293078 6.20324006 8.19293078 6.20324006 7.48828125 9.11328125 C5.17677957 12.04361015 2.05577532 12.25220675 -1.4375 12.9375 C-7.44814175 14.27267711 -12.77085897 15.97056734 -18.3203125 18.703125 C-22.34493368 20.65090085 -26.50657712 22.24616861 -30.6640625 23.88671875 C-33.14355123 24.77458996 -33.14355123 24.77458996 -34 27 C-35.11375 27.474375 -36.2275 27.94875 -37.375 28.4375 C-40.52639533 29.79586006 -41.80633596 30.57542396 -44 33 C-44.66 33 -45.32 33 -46 33 C-46 33.66 -46 34.32 -46 35 C-51.625 36.125 -51.625 36.125 -55 35 C-55 34.34 -55 33.68 -55 33 C-55.66 33 -56.32 33 -57 33 C-57.33 33.99 -57.66 34.98 -58 36 C-60.13113362 35.26761042 -62.25479751 34.51345686 -64.375 33.75 C-66.15003906 33.12351562 -66.15003906 33.12351562 -67.9609375 32.484375 C-71 31 -71 31 -72.4140625 28.828125 C-72.60742188 28.22484375 -72.80078125 27.6215625 -73 27 C-64.21984809 18.43935189 -52.32426467 12.51710001 -41 8 C-40.08863281 7.63003906 -39.17726562 7.26007813 -38.23828125 6.87890625 C-35.82973734 5.90809845 -33.41729869 4.94875189 -31 4 C-30.505 5.485 -30.505 5.485 -30 7 C-28.35 6.34 -26.7 5.68 -25 5 C-25 4.67 -25 4.34 -25 4 C-24.33613281 3.87882813 -23.67226563 3.75765625 -22.98828125 3.6328125 C-17.61919049 2.67148917 -17.61919049 2.67148917 -12.5 0.875 C-8.46566924 -0.53701576 -4.23544292 -0.33726675 0 0 Z " fill="#1B3C6E" transform="translate(86,175)"/>
<path d="M0 0 C1.69286133 -0.00386719 1.69286133 -0.00386719 3.41992188 -0.0078125 C4.59490234 -0.00007813 5.76988281 0.00765625 6.98046875 0.015625 C8.14384766 0.00789063 9.30722656 0.00015625 10.50585938 -0.0078125 C16.43715578 0.00569074 21.58140667 0.2104226 27.16796875 2.265625 C27.39427599 6.66072626 27.59587652 11.0566244 27.79296875 15.453125 C27.85742188 16.69900391 27.921875 17.94488281 27.98828125 19.22851562 C28.03984375 20.43056641 28.09140625 21.63261719 28.14453125 22.87109375 C28.19689941 23.97606201 28.24926758 25.08103027 28.30322266 26.21948242 C28.16420208 29.35045671 27.50807227 31.45506659 26.16796875 34.265625 C14.83357502 35.44322435 3.54948355 35.37054607 -7.83203125 35.265625 C-9.4800565 30.93742027 -10.07136596 27.39576916 -10.02734375 22.7734375 C-10.02089844 21.57460937 -10.01445313 20.37578125 -10.0078125 19.140625 C-9.99105469 17.903125 -9.97429687 16.665625 -9.95703125 15.390625 C-9.94800781 14.12992188 -9.93898438 12.86921875 -9.9296875 11.5703125 C-9.90618933 8.4685546 -9.87333459 5.36718848 -9.83203125 2.265625 C-6.47373311 0.24633482 -3.88958146 0.00857073 0 0 Z " fill="#E57530" transform="translate(113.83203125,126.734375)"/>
<path d="M0 0 C0 0.66 0 1.32 0 2 C1.98 1.34 3.96 0.68 6 0 C6 10.89 6 21.78 6 33 C4.02 33.495 4.02 33.495 2 34 C2 35.32 2 36.64 2 38 C-8.02355489 38.20272358 -17.99847189 37.58039956 -28 37 C-28.04946113 32.78248718 -28.08574827 28.56512832 -28.10986328 24.34741211 C-28.119917 22.91281188 -28.13356194 21.47823211 -28.15087891 20.04370117 C-28.17515549 17.98090562 -28.18648919 15.91838115 -28.1953125 13.85546875 C-28.20578613 12.61434326 -28.21625977 11.37321777 -28.22705078 10.09448242 C-28 7 -28 7 -26 4 C-25.34 4 -24.68 4 -24 4 C-24 3.34 -24 2.68 -24 2 C-16.48406031 -1.37253704 -8.0093418 -1.63827446 0 0 Z " fill="#E57530" transform="translate(92,81)"/>
<path d="M0 0 C0.89734863 0.0407666 1.79469727 0.0815332 2.71923828 0.12353516 C4.18296875 0.18927734 4.18296875 0.18927734 5.67626953 0.25634766 C6.70365234 0.30791016 7.73103516 0.35947266 8.78955078 0.41259766 C9.80919922 0.45642578 10.82884766 0.50025391 11.87939453 0.54541016 C19.52604992 0.90809737 19.52604992 0.90809737 22.91455078 2.03759766 C22.91455078 2.69759766 22.91455078 3.35759766 22.91455078 4.03759766 C23.90455078 4.03759766 24.89455078 4.03759766 25.91455078 4.03759766 C25.91455078 4.69759766 25.91455078 5.35759766 25.91455078 6.03759766 C26.90455078 6.36759766 27.89455078 6.69759766 28.91455078 7.03759766 C31.80886868 15.72055135 29.95738606 27.0803875 28.91455078 36.03759766 C22.04586622 36.93166197 15.33731621 37.19021507 8.41455078 37.16259766 C7.41423828 37.16646484 6.41392578 37.17033203 5.38330078 37.17431641 C4.43455078 37.17302734 3.48580078 37.17173828 2.50830078 37.17041016 C1.64914063 37.16928223 0.78998047 37.1681543 -0.09521484 37.16699219 C-2.08544922 37.03759766 -2.08544922 37.03759766 -3.08544922 36.03759766 C-3.18636397 33.4557032 -3.2251642 30.90113265 -3.21826172 28.31884766 C-3.21921844 27.54577271 -3.22017517 26.77269775 -3.22116089 25.97619629 C-3.22184263 24.33862222 -3.21998879 22.70104547 -3.21582031 21.06347656 C-3.21047193 18.54827845 -3.21576548 16.03325892 -3.22216797 13.51806641 C-3.22150719 11.93082643 -3.22022602 10.34358656 -3.21826172 8.75634766 C-3.22028595 7.99906372 -3.22231018 7.24177979 -3.22439575 6.46154785 C-3.19545171 0.05760941 -3.19545171 0.05760941 0 0 Z " fill="#E5752F" transform="translate(111.08544921875,80.96240234375)"/>
<path d="M0 0 C1.56339292 0.03339286 3.1260267 0.10315765 4.6875 0.1875 C5.99267578 0.23970703 5.99267578 0.23970703 7.32421875 0.29296875 C11.09375422 1.28900659 12.5485642 2.99826767 15 6 C15.59936523 9.33398438 15.59936523 9.33398438 15.55859375 13.09375 C15.55509666 14.09746643 15.55509666 14.09746643 15.55152893 15.12145996 C15.54182559 16.53015979 15.52011651 17.9388226 15.48706055 19.34716797 C15.43764372 21.49375721 15.42557604 23.63804931 15.41992188 25.78515625 C15.29901724 37.57417464 15.29901724 37.57417464 13 42 C10.36817937 43.25249295 7.90441332 43.48470086 5 44 C6.093125 44.0825 7.18625 44.165 8.3125 44.25 C12 45 12 45 13.70117188 46.63696289 C16.18666366 51.15896946 15.51822061 56.36904164 15.50097656 61.41723633 C15.50000425 63.42870326 15.54163877 65.43634935 15.5859375 67.44726562 C15.58980469 69.35862305 15.58980469 69.35862305 15.59375 71.30859375 C15.60083984 72.47189209 15.60792969 73.63519043 15.61523438 74.83374023 C14.79271409 79.06678214 13.48758026 80.49817226 10 83 C7.21162027 83.44003142 5.05947947 83.59085432 2.29296875 83.48828125 C1.20487663 83.47766914 1.20487663 83.47766914 0.09480286 83.46684265 C-2.20870703 83.43898406 -4.50973251 83.37627191 -6.8125 83.3125 C-8.37952203 83.28740563 -9.9465824 83.26459444 -11.51367188 83.24414062 C-15.34339656 83.18918681 -19.17127797 83.10298226 -23 83 C-23 82.67 -23 82.34 -23 82 C-11.99051677 81.385313 -1.03034265 80.81884474 10 81 C10.78579793 76.85076942 11.11854983 72.94706569 11.09765625 68.7265625 C11.09443359 67.57285156 11.09121094 66.41914063 11.08789062 65.23046875 C11.07951172 64.04066406 11.07113281 62.85085937 11.0625 61.625 C11.05798828 60.41199219 11.05347656 59.19898438 11.04882812 57.94921875 C11.03708354 54.96609493 11.0206584 51.98307321 11 49 C3.82334316 48.05114506 -3.20298478 47.84861271 -10.4375 47.875 C-11.52482422 47.87113281 -12.61214844 47.86726563 -13.73242188 47.86328125 C-14.76818359 47.86457031 -15.80394531 47.86585937 -16.87109375 47.8671875 C-17.80880615 47.86831543 -18.74651855 47.86944336 -19.71264648 47.87060547 C-22.03055944 47.85028673 -22.03055944 47.85028673 -24 49 C-22.25 45.125 -22.25 45.125 -20 44 C-18.46331135 43.77532169 -16.92031946 43.59203195 -15.375 43.4375 C-14.55773437 43.35371094 -13.74046875 43.26992187 -12.8984375 43.18359375 C-12.27195312 43.12300781 -11.64546875 43.06242187 -11 43 C-11 42.67 -11 42.34 -11 42 C-4.565 41.505 -4.565 41.505 2 41 C2 40.34 2 39.68 2 39 C4.64 38.67 7.28 38.34 10 38 C11.10983333 34.6705 11.12935751 32.15841357 11.1328125 28.65234375 C11.13410156 27.40775391 11.13539063 26.16316406 11.13671875 24.88085938 C11.13091797 22.92889648 11.13091797 22.92889648 11.125 20.9375 C11.12886719 19.63232422 11.13273437 18.32714844 11.13671875 16.98242188 C11.13542969 15.73912109 11.13414062 14.49582031 11.1328125 13.21484375 C11.13112061 11.49962524 11.13112061 11.49962524 11.12939453 9.74975586 C11.18766387 7.03809693 11.18766387 7.03809693 10 5 C8.18232869 4.16822376 8.18232869 4.16822376 6.0625 3.5 C3.29544796 2.57597536 2.10862631 2.10862631 0 0 Z " fill="#C57A4D" transform="translate(130,80)"/>
<path d="M0 0 C0.66 0.33 1.32 0.66 2 1 C0.5361389 5.39158329 -1.97831338 5.87947433 -6 8 C-6.41725678 11.37400578 -6.41725678 11.37400578 -6 15 C-3.28392302 17.26339749 -0.50937238 18.51594864 3 19 C3.66 18.67 4.32 18.34 5 18 C8.5625 18.75 8.5625 18.75 12 20 C13.30340147 23.9102044 13.13096269 27.61940555 13.11352539 31.6940918 C13.11367142 32.5821048 13.11381744 33.4701178 13.1139679 34.38504028 C13.11327068 37.32312454 13.10548718 40.26114556 13.09765625 43.19921875 C13.09579139 45.23517319 13.09436781 47.27112808 13.09336853 49.30708313 C13.08954869 54.66811357 13.07972292 60.02911697 13.06866455 65.39013672 C13.05843899 70.8596968 13.05386845 76.32926124 13.04882812 81.79882812 C13.03810021 92.53256397 13.02103015 103.26627974 13 114 C14.485 114.495 14.485 114.495 16 115 C16 116.98 16 118.96 16 121 C13.5625 120.1875 13.5625 120.1875 11 119 C9.67294434 115.01883301 9.82220703 111.1831785 9.79467773 107.03051758 C9.78477814 106.11324387 9.77487854 105.19597015 9.76467896 104.25090027 C9.7330622 101.21547029 9.70830577 98.18002465 9.68359375 95.14453125 C9.66302438 93.04131155 9.64202791 90.93809598 9.62062073 88.83488464 C9.56539833 83.29634956 9.51598975 77.75777716 9.46777344 72.21917725 C9.41755967 66.56861038 9.36187295 60.91809777 9.30664062 55.26757812 C9.19905698 44.17843176 9.09761242 33.0892383 9 22 C7.8709021 21.91020874 7.8709021 21.91020874 6.71899414 21.81860352 C5.23580688 21.69376587 5.23580688 21.69376587 3.72265625 21.56640625 C2.74304932 21.48592041 1.76344238 21.40543457 0.75415039 21.32250977 C-2.85522504 20.89985353 -5.13457728 20.2776437 -8 18 C-9.41664487 15.34305609 -10.01143214 13.01236959 -10 10 C-7.70149104 5.01989724 -4.57352218 2.70253583 0 0 Z " fill="#182745" transform="translate(10,66)"/>
<path d="M0 0 C1.27617188 0.20786133 1.27617188 0.20786133 2.578125 0.41992188 C3.46757813 0.57138672 4.35703125 0.72285156 5.2734375 0.87890625 C6.170625 1.02650391 7.0678125 1.17410156 7.9921875 1.32617188 C10.21195247 1.69219695 12.43055494 2.06417017 14.6484375 2.44140625 C14.6484375 3.10140625 14.6484375 3.76140625 14.6484375 4.44140625 C15.6384375 4.77140625 16.6284375 5.10140625 17.6484375 5.44140625 C15.09861317 6.71631841 13.48378326 6.46737241 10.640625 6.3203125 C9.30813721 6.25565796 9.30813721 6.25565796 7.94873047 6.18969727 C6.81838379 6.12838623 5.68803711 6.0670752 4.5234375 6.00390625 C0.9346875 5.81828125 -2.6540625 5.63265625 -6.3515625 5.44140625 C-6.3515625 16.99140625 -6.3515625 28.54140625 -6.3515625 40.44140625 C3.8784375 40.44140625 14.1084375 40.44140625 24.6484375 40.44140625 C24.74125 33.85171875 24.74125 33.85171875 24.8359375 27.12890625 C24.86324951 25.74662842 24.89056152 24.36435059 24.91870117 22.94018555 C24.92619385 21.85133057 24.93368652 20.76247559 24.94140625 19.640625 C24.96497192 17.96746216 24.96497192 17.96746216 24.98901367 16.26049805 C24.6065099 13.09435391 24.01982128 12.42205287 21.6484375 10.44140625 C21.6484375 9.78140625 21.6484375 9.12140625 21.6484375 8.44140625 C20.6584375 8.44140625 19.6684375 8.44140625 18.6484375 8.44140625 C18.6484375 7.78140625 18.6484375 7.12140625 18.6484375 6.44140625 C21.5234375 6.75390625 21.5234375 6.75390625 24.6484375 7.44140625 C27.00938201 10.98282301 26.90569911 12.5224209 26.9140625 16.71875 C26.91792969 18.57209961 26.91792969 18.57209961 26.921875 20.46289062 C26.91414063 21.75517578 26.90640625 23.04746094 26.8984375 24.37890625 C26.91003906 26.3115332 26.91003906 26.3115332 26.921875 28.28320312 C26.91929687 29.52005859 26.91671875 30.75691406 26.9140625 32.03125 C26.91180664 33.16425537 26.90955078 34.29726074 26.90722656 35.46459961 C26.65691518 38.34388893 26.14603042 40.00577288 24.6484375 42.44140625 C22.0084375 42.44140625 19.3684375 42.44140625 16.6484375 42.44140625 C16.6484375 43.10140625 16.6484375 43.76140625 16.6484375 44.44140625 C12.6884375 45.10140625 8.7284375 45.76140625 4.6484375 46.44140625 C4.6484375 46.77140625 4.6484375 47.10140625 4.6484375 47.44140625 C0.1475323 47.61791234 -3.36185471 47.65791058 -7.3515625 45.44140625 C-11.88624178 40.31766324 -11.49484082 34.46357928 -11.18359375 27.8984375 C-10.94599099 24.74073122 -10.6725108 21.59163725 -10.3515625 18.44140625 C-10.0215625 18.44140625 -9.6915625 18.44140625 -9.3515625 18.44140625 C-9.30257812 17.4771875 -9.25359375 16.51296875 -9.203125 15.51953125 C-9.12835938 14.25625 -9.05359375 12.99296875 -8.9765625 11.69140625 C-8.87214844 9.81195313 -8.87214844 9.81195313 -8.765625 7.89453125 C-8.39682356 4.81886638 -8.0627542 2.97741698 -6.3515625 0.44140625 C-3.83842093 -0.81516453 -2.74771825 -0.45795304 0 0 Z " fill="#D6753C" transform="translate(115.3515625,76.55859375)"/>
<path d="M0 0 C1.31806641 0.00257812 2.63613281 0.00515625 3.99414062 0.0078125 C5.02027466 0.02956543 5.02027466 0.02956543 6.06713867 0.05175781 C8.1505417 0.0935571 10.23070205 0.09283 12.31445312 0.0859375 C23.68731995 0.19705491 23.68731995 0.19705491 28.22265625 3.59375 C30.50028762 8.14901274 29.72262697 14.33296754 29.91015625 19.34375 C29.97009766 20.61992187 30.03003906 21.89609375 30.09179688 23.2109375 C30.13884766 24.44585937 30.18589844 25.68078125 30.234375 26.953125 C30.30338013 28.64646973 30.30338013 28.64646973 30.3737793 30.37402344 C30.21216088 33.8173573 29.55156073 36.42105933 28.22265625 39.59375 C26.28515625 41.03125 26.28515625 41.03125 24.22265625 41.59375 C23.23265625 41.26375 22.24265625 40.93375 21.22265625 40.59375 C21.88265625 40.59375 22.54265625 40.59375 23.22265625 40.59375 C23.22265625 39.93375 23.22265625 39.27375 23.22265625 38.59375 C24.54265625 38.59375 25.86265625 38.59375 27.22265625 38.59375 C26.91542385 34.03087926 26.60095508 29.46853522 26.28515625 24.90625 C26.15463867 22.96588867 26.15463867 22.96588867 26.02148438 20.98632812 C25.8909668 19.11557617 25.8909668 19.11557617 25.7578125 17.20703125 C25.67926025 16.06016846 25.60070801 14.91330566 25.51977539 13.73168945 C25.25665333 10.95280049 24.83109825 8.31502354 24.22265625 5.59375 C19.98727309 5.40154337 15.75160254 5.22281443 11.51513672 5.05664062 C10.07357483 4.99818576 8.63215818 4.93602856 7.19091797 4.87011719 C5.1210372 4.77609645 3.05100187 4.69533685 0.98046875 4.6171875 C-0.26589355 4.56481934 -1.51225586 4.51245117 -2.79638672 4.45849609 C-5.8965932 4.2634463 -5.8965932 4.2634463 -7.77734375 6.59375 C-7.96464128 9.16302031 -8.03309017 11.62248977 -8.0078125 14.19140625 C-8.00735428 14.94087021 -8.00689606 15.69033417 -8.00642395 16.46250916 C-8.00340186 18.04704369 -7.99551681 19.63157526 -7.9831543 21.21606445 C-7.96489058 23.65000858 -7.96264464 26.08357262 -7.96289062 28.51757812 C-7.95797576 30.05469081 -7.95214757 31.5918009 -7.9453125 33.12890625 C-7.94419968 33.86117935 -7.94308685 34.59345245 -7.94194031 35.34791565 C-8.21218683 38.75898002 -8.21218683 38.75898002 -6.77734375 41.59375 C-3.92205768 41.994133 -1.07997888 42.3455727 1.78515625 42.65625 C2.59146484 42.74712891 3.39777344 42.83800781 4.22851562 42.93164062 C6.22613002 43.15622449 8.22434185 43.37548236 10.22265625 43.59375 C10.55265625 42.93375 10.88265625 42.27375 11.22265625 41.59375 C13.86265625 41.59375 16.50265625 41.59375 19.22265625 41.59375 C12.37664945 45.39176776 2.97181694 46.65186833 -4.77734375 45.59375 C-7.19603953 44.4347916 -8.90056471 43.47052904 -10.77734375 41.59375 C-10.91558927 38.98596285 -10.99047849 36.40655809 -11.015625 33.796875 C-11.02369675 33.0110907 -11.03176849 32.2253064 -11.04008484 31.41571045 C-11.05394324 29.74786598 -11.06465751 28.07999294 -11.07250977 26.41210938 C-11.08968052 23.86793623 -11.13354329 21.32507674 -11.17773438 18.78125 C-11.18786478 17.1614679 -11.19637979 15.54167473 -11.203125 13.921875 C-11.22063309 13.16336243 -11.23814117 12.40484985 -11.25617981 11.62335205 C-11.24173594 8.0827392 -10.85877637 5.74530447 -9.17431641 2.61035156 C-5.98937668 -0.06917606 -4.13131669 -0.02432625 0 0 Z " fill="#C7794B" transform="translate(72.77734375,123.40625)"/>
<path d="M0 0 C2.475 0.99 2.475 0.99 5 2 C3.30146995 3.69853005 1.59879391 5.38940591 -0.125 7.0625 C-3.83233526 10.8934131 -3.15852595 14.85030858 -3.17358398 19.90014648 C-3.180271 20.82220886 -3.18695801 21.74427124 -3.19384766 22.6942749 C-3.20791758 24.70062872 -3.21980541 26.70699872 -3.22979546 28.713377 C-3.24617011 31.88588722 -3.26940577 35.05827723 -3.29469299 38.23072815 C-3.36557171 47.25214681 -3.42565202 56.27361437 -3.47680664 65.29516602 C-3.50855231 70.80884546 -3.54981588 76.32238679 -3.59700203 81.83595467 C-3.61304798 83.94072046 -3.6253575 86.0455181 -3.63390923 88.15032768 C-3.64602798 91.09051458 -3.67016292 94.03037517 -3.69702148 96.97045898 C-3.69761063 97.84485123 -3.69819977 98.71924347 -3.69880676 99.62013245 C-3.77210309 105.65815463 -3.77210309 105.65815463 -6 109 C-6.99 108.34 -7.98 107.68 -9 107 C-8.34 107 -7.68 107 -7 107 C-7.00222061 105.80840775 -7.00444122 104.61681549 -7.00672913 103.38911438 C-7.02699638 92.16225431 -7.04198946 80.93539796 -7.05181217 69.70852375 C-7.05703187 63.9366155 -7.064113 58.16472202 -7.07543945 52.39282227 C-7.0863007 46.82316632 -7.09228373 41.25352459 -7.09487724 35.68385887 C-7.09672564 33.55838993 -7.10033504 31.43292177 -7.10573006 29.30745888 C-7.11298339 26.33166444 -7.11398912 23.3559288 -7.11352539 20.38012695 C-7.1189183 19.06058517 -7.1189183 19.06058517 -7.12442017 17.71438599 C-7.11760428 13.67526092 -7.01502498 9.94091625 -6 6 C-4.68 5.67 -3.36 5.34 -2 5 C-2 4.34 -2 3.68 -2 3 C-1.34 2.67 -0.68 2.34 0 2 C0 1.34 0 0.68 0 0 Z " fill="#1C2743" transform="translate(53,67)"/>
<path d="M0 0 C0.66163651 0.02361099 1.32327301 0.04722198 2.00495911 0.07154846 C4.11421127 0.14800482 6.22307945 0.23210582 8.33203125 0.31640625 C9.76365321 0.36964505 11.19529379 0.42238532 12.62695312 0.47460938 C16.13304701 0.60359507 19.63883696 0.73943749 23.14453125 0.87890625 C24.74785275 5.40038384 25.36775074 8.94115139 25.26953125 13.75390625 C25.25148437 14.90632812 25.2334375 16.05875 25.21484375 17.24609375 C25.19164062 18.11492187 25.1684375 18.98375 25.14453125 19.87890625 C24.48453125 19.87890625 23.82453125 19.87890625 23.14453125 19.87890625 C22.81453125 14.26890625 22.48453125 8.65890625 22.14453125 2.87890625 C12.57453125 2.87890625 3.00453125 2.87890625 -6.85546875 2.87890625 C-6.52546875 13.76890625 -6.19546875 24.65890625 -5.85546875 35.87890625 C1.88919129 35.93691193 1.88919129 35.93691193 9.49609375 35.44140625 C10.36621094 35.35117188 11.23632812 35.2609375 12.1328125 35.16796875 C13.00292969 35.07257813 13.87304688 34.9771875 14.76953125 34.87890625 C16.13271484 34.73582031 16.13271484 34.73582031 17.5234375 34.58984375 C19.73100168 34.35746857 21.93795386 34.12044136 24.14453125 33.87890625 C24.10328125 32.93015625 24.06203125 31.98140625 24.01953125 31.00390625 C24.14453125 27.87890625 24.14453125 27.87890625 26.14453125 25.87890625 C26.14453125 28.84890625 26.14453125 31.81890625 26.14453125 34.87890625 C24.82453125 34.87890625 23.50453125 34.87890625 22.14453125 34.87890625 C22.14453125 35.53890625 22.14453125 36.19890625 22.14453125 36.87890625 C21.48453125 36.87890625 20.82453125 36.87890625 20.14453125 36.87890625 C20.14453125 37.53890625 20.14453125 38.19890625 20.14453125 38.87890625 C19.43425781 38.86730469 18.72398438 38.85570312 17.9921875 38.84375 C17.07308594 38.83472656 16.15398437 38.82570312 15.20703125 38.81640625 C13.83224609 38.79900391 13.83224609 38.79900391 12.4296875 38.78125 C10.17859798 38.61941576 10.17859798 38.61941576 9.14453125 39.87890625 C6.3155432 39.84055709 3.52871132 39.73373577 0.70703125 39.56640625 C-0.08251953 39.53095703 -0.87207031 39.49550781 -1.68554688 39.45898438 C-7.61401588 39.12035912 -7.61401588 39.12035912 -9.85546875 36.87890625 C-10.03064622 34.15404897 -10.08696008 31.53231263 -10.05078125 28.80859375 C-10.04795135 28.01236603 -10.04512146 27.21613831 -10.04220581 26.39578247 C-10.03099515 23.84833862 -10.00588937 21.30124414 -9.98046875 18.75390625 C-9.97044008 17.0286509 -9.96131403 15.30339006 -9.953125 13.578125 C-9.93105297 9.34491711 -9.89651742 5.11197095 -9.85546875 0.87890625 C-6.32548547 -0.29775484 -3.71909459 -0.14123144 0 0 Z " fill="#D6783F" transform="translate(73.85546875,127.12109375)"/>
<path d="M0 0 C1.06992188 0.00644531 2.13984375 0.01289062 3.2421875 0.01953125 C4.35335937 0.03628906 5.46453125 0.05304688 6.609375 0.0703125 C7.73601562 0.07933594 8.86265625 0.08835937 10.0234375 0.09765625 C12.80229865 0.12120592 15.5807289 0.1540957 18.359375 0.1953125 C18.359375 0.8553125 18.359375 1.5153125 18.359375 2.1953125 C17.41300171 2.23289673 17.41300171 2.23289673 16.44750977 2.27124023 C13.60540675 2.38685387 10.76366417 2.50973566 7.921875 2.6328125 C6.43204102 2.69178711 6.43204102 2.69178711 4.91210938 2.75195312 C3.49575195 2.81479492 3.49575195 2.81479492 2.05078125 2.87890625 C0.73895874 2.93389282 0.73895874 2.93389282 -0.59936523 2.98999023 C-2.6333652 2.97712316 -2.6333652 2.97712316 -3.640625 4.1953125 C-3.79851042 5.90351631 -3.8917118 7.61779048 -3.95703125 9.33203125 C-3.99892578 10.38455078 -4.04082031 11.43707031 -4.08398438 12.52148438 C-4.12330078 13.63072266 -4.16261719 14.73996094 -4.203125 15.8828125 C-4.24630859 16.97271484 -4.28949219 18.06261719 -4.33398438 19.18554688 C-4.52598831 24.19288763 -4.6624287 29.1837095 -4.640625 34.1953125 C-4.07859375 34.0509375 -3.5165625 33.9065625 -2.9375 33.7578125 C6.76349093 31.61526236 16.48549951 32.0212383 26.359375 32.1953125 C26.359375 32.8553125 26.359375 33.5153125 26.359375 34.1953125 C15.02498127 35.37291185 3.7408898 35.30023357 -7.640625 35.1953125 C-9.28865025 30.86710777 -9.87995971 27.32545666 -9.8359375 22.703125 C-9.82949219 21.50429687 -9.82304688 20.30546875 -9.81640625 19.0703125 C-9.79964844 17.8328125 -9.78289062 16.5953125 -9.765625 15.3203125 C-9.75660156 14.05960938 -9.74757813 12.79890625 -9.73828125 11.5 C-9.71478308 8.3982421 -9.68192834 5.29687598 -9.640625 2.1953125 C-6.3223173 0.20570477 -3.84102801 -0.040862 0 0 Z " fill="#DA783B" transform="translate(113.640625,126.8046875)"/>
<path d="M0 0 C0.66 0.33 1.32 0.66 2 1 C-1.23220107 4.92481558 -3.63705138 5.61889638 -8.625 6.1875 C-12.96173126 6.59229011 -12.96173126 6.59229011 -17 8 C-16.99777939 8.91232895 -16.99555878 9.8246579 -16.99327087 10.76463318 C-16.97327072 19.34383277 -16.95802728 27.92302458 -16.94818783 36.50224209 C-16.94295931 40.91337004 -16.93586223 45.3244788 -16.92456055 49.7355957 C-16.91373056 53.98901115 -16.90772293 58.24240809 -16.90512276 62.49583626 C-16.90326871 64.12221633 -16.89964848 65.74859534 -16.89426994 67.37496758 C-16.88705802 69.64510193 -16.88600912 71.91515885 -16.88647461 74.18530273 C-16.884254 75.47991928 -16.88203339 76.77453583 -16.87974548 78.10838318 C-17 81 -17 81 -18 82 C-20.18639453 82.07258946 -22.37500389 82.08373783 -24.5625 82.0625 C-25.76003906 82.05347656 -26.95757812 82.04445313 -28.19140625 82.03515625 C-29.58166016 82.01775391 -29.58166016 82.01775391 -31 82 C-30.505 81.01 -30.505 81.01 -30 80 C-27.93359375 79.5859375 -27.93359375 79.5859375 -25.4375 79.375 C-24.19806641 79.26285156 -24.19806641 79.26285156 -22.93359375 79.1484375 C-22.29550781 79.09945312 -21.65742188 79.05046875 -21 79 C-20.855625 77.906875 -20.71125 76.81375 -20.5625 75.6875 C-20 72 -20 72 -19 69 C-18.9193378 67.51876453 -18.89238807 66.03417796 -18.90234375 64.55078125 C-18.90556641 63.70322266 -18.90878906 62.85566406 -18.91210938 61.98242188 C-18.92048828 61.10134766 -18.92886719 60.22027344 -18.9375 59.3125 C-18.94201172 58.41982422 -18.94652344 57.52714844 -18.95117188 56.60742188 C-18.96295017 54.40488013 -18.97939836 52.20247401 -19 50 C-19.33 50 -19.66 50 -20 50 C-20.07425639 44.11013537 -20.12865268 38.22054434 -20.16479492 32.33032227 C-20.17986465 30.32734428 -20.2003241 28.3243992 -20.22631836 26.3215332 C-20.26278127 23.43953319 -20.27974461 20.55797016 -20.29296875 17.67578125 C-20.30845261 16.78288895 -20.32393646 15.88999664 -20.33988953 14.970047 C-20.34011612 14.12955307 -20.34034271 13.28905914 -20.34057617 12.4230957 C-20.35056892 11.32056206 -20.35056892 11.32056206 -20.36076355 10.195755 C-20 8 -20 8 -17 3 C-12.71 3.33 -8.42 3.66 -4 4 C-4 3.34 -4 2.68 -4 2 C-2.125 0.9375 -2.125 0.9375 0 0 Z " fill="#192444" transform="translate(203,81)"/>
<path d="M0 0 C0.66 0.33 1.32 0.66 2 1 C0.5361389 5.39158329 -1.97831338 5.87947433 -6 8 C-6.41725678 11.37400578 -6.41725678 11.37400578 -6 15 C-3.28392302 17.26339749 -0.50937238 18.51594864 3 19 C3.66 18.67 4.32 18.34 5 18 C7.31 18.66 9.62 19.32 12 20 C11.67 51.02 11.34 82.04 11 114 C10.67 114 10.34 114 10 114 C9.67 83.64 9.34 53.28 9 22 C5.37 21.67 1.74 21.34 -2 21 C-5.5625 19.9375 -5.5625 19.9375 -8 18 C-9.41664487 15.34305609 -10.01143214 13.01236959 -10 10 C-7.70149104 5.01989724 -4.57352218 2.70253583 0 0 Z " fill="#080E1A" transform="translate(10,66)"/>
<path d="M0 0 C-3.5257048 1.93032338 -7.17798273 3.09025073 -11 4.3125 C-25.49329042 9.07483089 -41.50622703 14.90359141 -53 25.25 C-54.99609375 26.95703125 -54.99609375 26.95703125 -57 28 C-60.37608751 27.68267899 -63.03942944 26.61676548 -66 25 C-66 24.01 -66 23.02 -66 22 C-65.34 22 -64.68 22 -64 22 C-64 22.66 -64 23.32 -64 24 C-61.03 24 -58.06 24 -55 24 C-55 23.34 -55 22.68 -55 22 C-54.360625 21.896875 -53.72125 21.79375 -53.0625 21.6875 C-52.381875 21.460625 -51.70125 21.23375 -51 21 C-50.67 20.01 -50.34 19.02 -50 18 C-47.39757586 16.35179805 -46.13751221 16 -43 16 C-42.67 15.01 -42.34 14.02 -42 13 C-39.31832779 11.72287213 -36.70650432 10.61281198 -33.9375 9.5625 C-32.44539242 8.98360909 -30.95449812 8.40158106 -29.46484375 7.81640625 C-28.72049072 7.52419189 -27.9761377 7.23197754 -27.20922852 6.9309082 C-25.03930082 6.01656029 -22.98200216 4.98579 -20.8984375 3.890625 C-17.25206862 2.02387555 -13.71517107 1.01064152 -9.6875 0.1875 C-7.89892578 -0.19341797 -7.89892578 -0.19341797 -6.07421875 -0.58203125 C-3 -1 -3 -1 0 0 Z " fill="#1A3257" transform="translate(95,186)"/>
<path d="M0 0 C0.68191406 0.04189453 1.36382812 0.08378906 2.06640625 0.12695312 C2.76378906 0.14951172 3.46117188 0.17207031 4.1796875 0.1953125 C5.8928556 0.25398264 7.60491248 0.34366056 9.31640625 0.43945312 C9.31640625 0.76945312 9.31640625 1.09945312 9.31640625 1.43945312 C7.66640625 1.76945312 6.01640625 2.09945312 4.31640625 2.43945312 C4.31640625 2.76945312 4.31640625 3.09945312 4.31640625 3.43945312 C3.68992187 3.4884375 3.0634375 3.53742188 2.41796875 3.58789062 C1.60070312 3.66265625 0.7834375 3.73742187 -0.05859375 3.81445312 C-0.87070313 3.8840625 -1.6828125 3.95367187 -2.51953125 4.02539062 C-4.88693566 4.26837901 -4.88693566 4.26837901 -6.68359375 6.43945312 C-6.87089128 9.00872343 -6.93934017 11.46819289 -6.9140625 14.03710938 C-6.91360428 14.78657333 -6.91314606 15.53603729 -6.91267395 16.30821228 C-6.90965186 17.89274682 -6.90176681 19.47727839 -6.8894043 21.06176758 C-6.87114058 23.49571171 -6.86889464 25.92927574 -6.86914062 28.36328125 C-6.86422576 29.90039394 -6.85839757 31.43750403 -6.8515625 32.97460938 C-6.85044968 33.70688248 -6.84933685 34.43915558 -6.84819031 35.19361877 C-7.11843683 38.60468315 -7.11843683 38.60468315 -5.68359375 41.43945312 C-2.82830768 41.83983613 0.01377112 42.19127582 2.87890625 42.50195312 C3.68521484 42.59283203 4.49152344 42.68371094 5.32226562 42.77734375 C7.31988002 43.00192762 9.31809185 43.22118549 11.31640625 43.43945312 C11.64640625 42.77945313 11.97640625 42.11945313 12.31640625 41.43945312 C14.95640625 41.43945312 17.59640625 41.43945312 20.31640625 41.43945312 C13.47039945 45.23747088 4.06556694 46.49757145 -3.68359375 45.43945312 C-6.10228953 44.28049473 -7.80681471 43.31623217 -9.68359375 41.43945312 C-9.82183927 38.83166598 -9.89672849 36.25226121 -9.921875 33.64257812 C-9.92994675 32.85679382 -9.93801849 32.07100952 -9.94633484 31.26141357 C-9.96019324 29.5935691 -9.97090751 27.92569606 -9.97875977 26.2578125 C-9.99593052 23.71363936 -10.03979329 21.17077987 -10.08398438 18.62695312 C-10.09411478 17.00717103 -10.10262979 15.38737786 -10.109375 13.76757812 C-10.12688309 13.00906555 -10.14439117 12.25055298 -10.16242981 11.46905518 C-10.14747185 7.80242357 -9.79039542 5.61714639 -7.88647461 2.44946289 C-5.25850348 0.05158122 -3.50634446 -0.08510545 0 0 Z " fill="#D08057" transform="translate(71.68359375,123.560546875)"/>
<path d="M0 0 C0.495 0.99 0.495 0.99 1 2 C-2.3 2.66 -5.6 3.32 -9 4 C-8.01 4.99 -7.02 5.98 -6 7 C-6.99 7.99 -7.98 8.98 -9 10 C-8.505 10.99 -8.505 10.99 -8 12 C-13.53846154 11.38461538 -13.53846154 11.38461538 -15.875 9.4375 C-16.24625 8.963125 -16.6175 8.48875 -17 8 C-17 8.66 -17 9.32 -17 10 C-21.75 9.125 -21.75 9.125 -24 8 C-29.1277229 7.52300252 -32.35033544 8.96067344 -37 11 C-39.33006911 11.35543427 -41.66327016 11.6913753 -44 12 C-46.23408113 12.99083967 -46.23408113 12.99083967 -48 14 C-48.66 14 -49.32 14 -50 14 C-50 13.01 -50 12.02 -50 11 C-40.09069261 7.79685387 -30.15490331 5.28024159 -19.9375 3.25 C-18.87990479 3.03964111 -17.82230957 2.82928223 -16.73266602 2.61254883 C-11.16700471 1.53400069 -5.63510192 0.6223642 0 0 Z " fill="#1A3358" transform="translate(106,168)"/>
<path d="M0 0 C2.875 0.3125 2.875 0.3125 6 1 C8.36094451 4.54141676 8.25726161 6.08101465 8.265625 10.27734375 C8.26949219 12.13069336 8.26949219 12.13069336 8.2734375 14.02148438 C8.26570313 15.31376953 8.25796875 16.60605469 8.25 17.9375 C8.25773437 19.22591797 8.26546875 20.51433594 8.2734375 21.84179688 C8.27085937 23.07865234 8.26828125 24.31550781 8.265625 25.58984375 C8.26336914 26.72284912 8.26111328 27.85585449 8.25878906 29.02319336 C8.00847768 31.90248268 7.49759292 33.56436663 6 36 C3.36 36 0.72 36 -2 36 C-2 36.66 -2 37.32 -2 38 C-2.84304687 38.13277344 -3.68609375 38.26554687 -4.5546875 38.40234375 C-5.65039062 38.57894531 -6.74609375 38.75554687 -7.875 38.9375 C-8.96554688 39.11152344 -10.05609375 39.28554687 -11.1796875 39.46484375 C-13.93821546 39.85551159 -13.93821546 39.85551159 -16 41 C-17.98 39.35 -19.96 37.7 -22 36 C-18.6816923 34.01039227 -16.20040301 33.7638255 -12.359375 33.8046875 C-11.28945312 33.81113281 -10.21953125 33.81757812 -9.1171875 33.82421875 C-8.00601563 33.84097656 -6.89484375 33.85773438 -5.75 33.875 C-4.62335938 33.88402344 -3.49671875 33.89304688 -2.3359375 33.90234375 C0.44292365 33.92589342 3.2213539 33.9587832 6 34 C6.08690253 29.56262288 6.14035926 25.12546366 6.1875 20.6875 C6.21263672 19.42486328 6.23777344 18.16222656 6.26367188 16.86132812 C6.27333984 15.65283203 6.28300781 14.44433594 6.29296875 13.19921875 C6.3086792 12.08377686 6.32438965 10.96833496 6.34057617 9.8190918 C5.9580724 6.65294766 5.37138378 5.98064662 3 4 C3 3.34 3 2.68 3 2 C2.01 2 1.02 2 0 2 C0 1.34 0 0.68 0 0 Z " fill="#DA773E" transform="translate(134,83)"/>
<path d="M0 0 C0.33 0 0.66 0 1 0 C1 19.14 1 38.28 1 58 C1.66 58.33 2.32 58.66 3 59 C4 60 5 61 6 62 C6.99 62.66 7.98 63.32 9 64 C4.9715651 64.18311068 2.51624755 63.94158017 -1 62 C-2.62852538 17.64867043 -2.62852538 17.64867043 0 0 Z " fill="#1D2741" transform="translate(159,98)"/>
<path d="M0 0 C0 0.33 0 0.66 0 1 C-1.24716797 1.16435547 -1.24716797 1.16435547 -2.51953125 1.33203125 C-3.60621094 1.49058594 -4.69289063 1.64914063 -5.8125 1.8125 C-6.89144531 1.96332031 -7.97039062 2.11414063 -9.08203125 2.26953125 C-12.1631381 3.04083912 -12.97723738 3.68827129 -15 6 C-18.1875 7.1875 -18.1875 7.1875 -21 8 C-21.97248638 14.92896547 -22.0177025 21.66535409 -21.83984375 28.64453125 C-21.98984449 31.78722958 -22.32704106 33.39543255 -24 36 C-24.33 36 -24.66 36 -25 36 C-25.04946866 31.92492428 -25.08575189 27.84996503 -25.10986328 23.7746582 C-25.1199157 22.38855952 -25.1335597 21.00248201 -25.15087891 19.61645508 C-25.17515952 17.6233025 -25.18542031 15.62999467 -25.1953125 13.63671875 C-25.20578613 12.43748779 -25.21625977 11.23825684 -25.22705078 10.00268555 C-25 7 -25 7 -23 4 C-22.34 4 -21.68 4 -21 4 C-21 3.34 -21 2.68 -21 2 C-17.26315458 0.31394636 -14.0184248 -0.37278898 -9.9375 -0.6875 C-8.91527344 -0.77386719 -7.89304687 -0.86023438 -6.83984375 -0.94921875 C-4.29618921 -0.99470363 -2.40540845 -0.76719262 0 0 Z " fill="#D9763C" transform="translate(89,81)"/>
<path d="M0 0 C0.99 0.33 1.98 0.66 3 1 C3.02692484 3.29160319 3.04636124 5.58329546 3.0625 7.875 C3.07410156 9.15117188 3.08570312 10.42734375 3.09765625 11.7421875 C3 15 3 15 2 17 C2.99 17.33 3.98 17.66 5 18 C4.67 18.33 4.34 18.66 4 19 C3.84379445 20.41327947 3.74943827 21.8335459 3.68359375 23.25390625 C3.64169922 24.10791016 3.59980469 24.96191406 3.55664062 25.84179688 C3.51732422 26.73962891 3.47800781 27.63746094 3.4375 28.5625 C3.39431641 29.46419922 3.35113281 30.36589844 3.30664062 31.29492188 C3.20021858 33.52978485 3.09820012 35.76476308 3 38 C0.3333581 39.33332095 -1.16680303 38.67102033 -4 38 C-4 37.01 -4 36.02 -4 35 C-2.515 34.505 -2.515 34.505 -1 34 C-0.67 22.78 -0.34 11.56 0 0 Z " fill="#D57C42" transform="translate(98,80)"/>
<path d="M0 0 C0.66 0 1.32 0 2 0 C2.14532035 4.56216465 2.23408477 9.12373362 2.3125 13.6875 C2.35439453 14.98107422 2.39628906 16.27464844 2.43945312 17.60742188 C2.45556641 18.85458984 2.47167969 20.10175781 2.48828125 21.38671875 C2.51446533 22.53358154 2.54064941 23.68044434 2.56762695 24.86206055 C1.80100085 29.10010153 0.48012297 30.50333998 -3 33 C-5.78837973 33.44003142 -7.94052053 33.59085432 -10.70703125 33.48828125 C-11.43242599 33.48120651 -12.15782074 33.47413177 -12.90519714 33.46684265 C-15.20870703 33.43898406 -17.50973251 33.37627191 -19.8125 33.3125 C-21.37952203 33.28740563 -22.9465824 33.26459444 -24.51367188 33.24414062 C-28.34339656 33.18918681 -32.17127797 33.10298226 -36 33 C-36 32.67 -36 32.34 -36 32 C-24.99051677 31.385313 -14.03034265 30.81884474 -3 31 C-3 30.34 -3 29.68 -3 29 C-2.34 28.67 -1.68 28.34 -1 28 C-0.67 18.76 -0.34 9.52 0 0 Z " fill="#AA765B" transform="translate(143,130)"/>
<path d="M0 0 C0 0.66 0 1.32 0 2 C-1.16571533 2.03758423 -1.16571533 2.03758423 -2.35498047 2.07592773 C-5.86183069 2.19166796 -9.36839745 2.31449352 -12.875 2.4375 C-14.09832031 2.47681641 -15.32164062 2.51613281 -16.58203125 2.55664062 C-18.33193359 2.61948242 -18.33193359 2.61948242 -20.1171875 2.68359375 C-21.19597168 2.72025146 -22.27475586 2.75690918 -23.38623047 2.79467773 C-25.98069536 2.83376643 -25.98069536 2.83376643 -28 4 C-30.76569994 3.93581709 -33.49228091 3.81039288 -36.25 3.625 C-37.00152344 3.58117187 -37.75304687 3.53734375 -38.52734375 3.4921875 C-42.74312142 3.22732189 -46.84148738 2.78137658 -51 2 C-51 1.67 -51 1.34 -51 1 C-33.91077038 -0.34819434 -17.12565148 -1.50689442 0 0 Z " fill="#203253" transform="translate(164,166)"/>
<path d="M0 0 C2.475 0.99 2.475 0.99 5 2 C3.30146995 3.69853005 1.59879391 5.38940591 -0.125 7.0625 C-2.83018816 9.8578611 -3.12972789 11.48639461 -3.20532227 15.26611328 C-3.22526749 16.14687531 -3.24521271 17.02763733 -3.26576233 17.93508911 C-3.28247482 18.88721283 -3.29918732 19.83933655 -3.31640625 20.8203125 C-3.33718735 21.79410858 -3.35796844 22.76790466 -3.37937927 23.77120972 C-3.44488598 26.88906647 -3.50376497 30.00700903 -3.5625 33.125 C-3.60568415 35.23568604 -3.6492984 37.34636333 -3.69335938 39.45703125 C-3.80056847 44.6379295 -3.90233278 49.81891356 -4 55 C-4.33 55 -4.66 55 -5 55 C-5 41.8 -5 28.6 -5 15 C-5.66 14.67 -6.32 14.34 -7 14 C-6.67 11.36 -6.34 8.72 -6 6 C-4.68 5.67 -3.36 5.34 -2 5 C-2 4.34 -2 3.68 -2 3 C-1.34 2.67 -0.68 2.34 0 2 C0 1.34 0 0.68 0 0 Z " fill="#18223A" transform="translate(53,67)"/>
<path d="M0 0 C3.07050367 1.46482744 5.89326213 3.1546538 8.75 5 C13.70735023 8.18158298 18.69035351 11.31899669 23.6875 14.4375 C24.76692871 15.11135742 24.76692871 15.11135742 25.86816406 15.79882812 C27.57854096 16.86626218 29.28923561 17.93318708 31 19 C30.67 19.99 30.34 20.98 30 22 C29.42636719 21.70996094 28.85273438 21.41992188 28.26171875 21.12109375 C26.81628761 20.40461925 25.36113184 19.70723481 23.89453125 19.03515625 C23.20746094 18.71417969 22.52039063 18.39320312 21.8125 18.0625 C20.77029297 17.58490234 20.77029297 17.58490234 19.70703125 17.09765625 C18 16 18 16 17 13 C15.28480253 11.97348627 15.28480253 11.97348627 13 11 C8.16214418 8.40189224 4.03548259 5.74020338 0 2 C0 1.34 0 0.68 0 0 Z " fill="#12213B" transform="translate(156,40)"/>
<path d="M0 0 C-0.24609375 1.859375 -0.24609375 1.859375 -1 4 C-2.84765625 5.265625 -2.84765625 5.265625 -5.0625 6.25 C-5.79597656 6.58515625 -6.52945312 6.9203125 -7.28515625 7.265625 C-8.13400391 7.62914062 -8.13400391 7.62914062 -9 8 C-9 8.66 -9 9.32 -9 10 C-9.56589844 10.18175781 -10.13179687 10.36351562 -10.71484375 10.55078125 C-11.81505859 10.92783203 -11.81505859 10.92783203 -12.9375 11.3125 C-14.03384766 11.67794922 -14.03384766 11.67794922 -15.15234375 12.05078125 C-17.35932024 12.91240441 -17.35932024 12.91240441 -18 16 C-17.34 16.66 -16.68 17.32 -16 18 C-16.66 18.33 -17.32 18.66 -18 19 C-20.625 17.5625 -20.625 17.5625 -23 16 C-20.35360235 9.39123646 -7.32971765 0 0 0 Z " fill="#1D3252" transform="translate(36,188)"/>
<path d="M0 0 C5.28 0.33 10.56 0.66 16 1 C16 1.66 16 2.32 16 3 C10.80417137 3.5724089 5.6080441 4.14199667 0.41162109 4.70898438 C-1.35571628 4.90222104 -3.12296991 5.09622528 -4.89013672 5.29101562 C-7.4317491 5.57103588 -9.97365091 5.84828497 -12.515625 6.125 C-13.30430969 6.21249512 -14.09299438 6.29999023 -14.90557861 6.39013672 C-18.30087396 6.75734544 -21.57994818 7 -25 7 C-25 6.34 -25 5.68 -25 5 C-9.98473282 2.00763359 -9.98473282 2.00763359 -6 4 C-6 3.34 -6 2.68 -6 2 C-4.02 2 -2.04 2 0 2 C0 1.34 0 0.68 0 0 Z " fill="#162E52" transform="translate(146,173)"/>
<path d="M0 0 C2.09501279 1.24181995 4.02471948 2.56792163 6 4 C5.67 5.32 5.34 6.64 5 8 C4.39671875 7.59007812 3.7934375 7.18015625 3.171875 6.7578125 C2.37265625 6.21898437 1.5734375 5.68015625 0.75 5.125 C-0.03890625 4.59132813 -0.8278125 4.05765625 -1.640625 3.5078125 C-2.41921875 3.01023437 -3.1978125 2.51265625 -4 2 C-4.62261719 1.59523438 -5.24523437 1.19046875 -5.88671875 0.7734375 C-8.91821954 -0.33605817 -11.37829211 0.1232564 -14.5625 0.5 C-20.66875603 1.22082932 -20.66875603 1.22082932 -24 -1 C-15.74156473 -5.39278472 -8.25668072 -3.98120873 0 0 Z " fill="#12203B" transform="translate(116,12)"/>
<path d="M0 0 C0.99 0 1.98 0 3 0 C3.02952761 3.29164717 3.04697292 6.58325938 3.0625 9.875 C3.07087891 10.7928125 3.07925781 11.710625 3.08789062 12.65625 C3.10964173 18.8335647 2.73930108 24.86721835 2 31 C1.67 30.01 1.34 29.02 1 28 C0.34 28 -0.32 28 -1 28 C-1.02886338 23.52084672 -1.04675187 19.04171709 -1.0625 14.5625 C-1.07087891 13.28310547 -1.07925781 12.00371094 -1.08789062 10.68554688 C-1.09111328 9.47060547 -1.09433594 8.25566406 -1.09765625 7.00390625 C-1.10289307 5.87799072 -1.10812988 4.7520752 -1.11352539 3.59204102 C-1 1 -1 1 0 0 Z " fill="#C97A46" transform="translate(105,128)"/>
<path d="M0 0 C0.99 0.33 1.98 0.66 3 1 C2.01 1.495 2.01 1.495 1 2 C-0.12183708 5.36551123 -0.20800968 8.09060232 -0.31640625 11.63671875 C-0.35830078 12.93544922 -0.40019531 14.23417969 -0.44335938 15.57226562 C-0.48316987 16.94400761 -0.52288216 18.31575244 -0.5625 19.6875 C-0.60570835 21.07097645 -0.64932339 22.45444027 -0.69335938 23.83789062 C-0.79958028 27.22515719 -0.90162358 30.61249799 -1 34 C-1.99 33.34 -2.98 32.68 -4 32 C-4.67799328 27.41258689 -4.46274599 22.75649113 -4.4375 18.125 C-4.45748047 16.83207031 -4.47746094 15.53914063 -4.49804688 14.20703125 C-4.49740234 12.96566406 -4.49675781 11.72429687 -4.49609375 10.4453125 C-4.49794678 9.30594238 -4.4997998 8.16657227 -4.50170898 6.99267578 C-3.90203829 3.41566199 -2.77139311 2.24804138 0 0 Z " fill="#BE7047" transform="translate(108,76)"/>
<path d="M0 0 C5.59746958 0.34984185 10.14007107 4.14007107 14 8 C14.66 7.67 15.32 7.34 16 7 C16.37511719 7.48210938 16.75023438 7.96421875 17.13671875 8.4609375 C20.10819566 12.12850346 22.26337814 14.74618833 27 16 C26.67 17.32 26.34 18.64 26 20 C25.34515625 19.5153125 24.6903125 19.030625 24.015625 18.53125 C12.01947603 9.4438594 12.01947603 9.4438594 -1 2 C-0.67 1.34 -0.34 0.68 0 0 Z " fill="#101E39" transform="translate(103,36)"/>
<path d="M0 0 C1.02574883 0.00212242 1.02574883 0.00212242 2.07221985 0.00428772 C4.25261847 0.00987749 6.43291376 0.02242803 8.61328125 0.03515625 C10.09309747 0.04017258 11.57291531 0.04473525 13.05273438 0.04882812 C16.67711682 0.05984354 20.30143895 0.07710113 23.92578125 0.09765625 C23.92578125 0.75765625 23.92578125 1.41765625 23.92578125 2.09765625 C22.79398438 2.14664063 21.6621875 2.195625 20.49609375 2.24609375 C19.01429786 2.32112139 17.53252825 2.39666922 16.05078125 2.47265625 C15.30441406 2.50359375 14.55804688 2.53453125 13.7890625 2.56640625 C9.39104937 2.65409456 9.39104937 2.65409456 5.92578125 5.09765625 C0.72106181 5.80549809 -4.27165204 5.25881127 -9.07421875 3.09765625 C-9.40421875 2.43765625 -9.73421875 1.77765625 -10.07421875 1.09765625 C-6.5359562 -0.0817646 -3.73273149 -0.01523564 0 0 Z " fill="#BF6F3D" transform="translate(73.07421875,118.90234375)"/>
<path d="M0 0 C0.33 0 0.66 0 1 0 C1.04898438 1.00160156 1.09796875 2.00320312 1.1484375 3.03515625 C1.22354079 4.37762759 1.29908526 5.7200743 1.375 7.0625 C1.44460937 8.37347656 1.51421875 9.68445313 1.5859375 11.03515625 C1.99551336 14.95703829 2.59901327 18.31319281 4 22 C5.64119399 23.43383299 5.64119399 23.43383299 7.625 23.9375 C9.295625 24.4634375 9.295625 24.4634375 11 25 C11 25.66 11 26.32 11 27 C11.66 27.66 12.32 28.32 13 29 C8.45929264 28.76911658 5.88530236 28.58392283 2.0625 26.0625 C-2.99467314 18.55336413 -0.8726267 8.56516665 0 0 Z " fill="#C9823F" transform="translate(105,95)"/>
<path d="M0 0 C0.33 0.99 0.66 1.98 1 3 C1.66 3 2.32 3 3 3 C3 3.66 3 4.32 3 5 C3.63421875 4.855625 4.2684375 4.71125 4.921875 4.5625 C14.93774152 2.57039395 24.82885336 2.81909028 35 3 C35 3.66 35 4.32 35 5 C26.90670977 5.84086132 18.88190126 6.10841979 10.75 6.125 C9.33811401 6.13176758 9.33811401 6.13176758 7.89770508 6.13867188 C7.01880615 6.13673828 6.13990723 6.13480469 5.234375 6.1328125 C4.44256836 6.13168457 3.65076172 6.13055664 2.83496094 6.12939453 C1 6 1 6 0 5 C-0.04063832 3.33382885 -0.042721 1.66611905 0 0 Z " fill="#D37B45" transform="translate(105,156)"/>
<path d="M0 0 C0.66 0.99 1.32 1.98 2 3 C-3.625 6 -3.625 6 -7 6 C-7.05027344 6.59296875 -7.10054687 7.1859375 -7.15234375 7.796875 C-8.40971763 11.06488821 -10.49585269 11.69905194 -13.5625 13.25 C-14.57441406 13.77078125 -15.58632812 14.2915625 -16.62890625 14.828125 C-17.41136719 15.21484375 -18.19382812 15.6015625 -19 16 C-19.66 15.34 -20.32 14.68 -21 14 C-14.13815707 9.10293639 -7.14695431 4.47024329 0 0 Z " fill="#111D3D" transform="translate(91,12)"/>
<path d="M0 0 C0.33 0 0.66 0 1 0 C1.14546783 3.24952748 1.2341168 6.49821713 1.3125 9.75 C1.35439453 10.67039062 1.39628906 11.59078125 1.43945312 12.5390625 C1.56126963 19.26333361 1.56126963 19.26333361 -1 22.625 C-4.93224337 24.42727821 -8.04891596 24.44812902 -12.3125 24.25 C-13.42334961 24.22292969 -13.42334961 24.22292969 -14.55664062 24.1953125 C-16.3716571 24.14847337 -18.18600166 24.07673789 -20 24 C-20.33 23.34 -20.66 22.68 -21 22 C-15.39 22 -9.78 22 -4 22 C-3.67 21.01 -3.34 20.02 -3 19 C-2.34 19 -1.68 19 -1 19 C-0.67 12.73 -0.34 6.46 0 0 Z " fill="#BF7E55" transform="translate(101,99)"/>
<path d="M0 0 C1.98 0.99 1.98 0.99 4 2 C4 3.32 4 4.64 4 6 C4.66 6 5.32 6 6 6 C5.67 10.62 5.34 15.24 5 20 C4.01 20 3.02 20 2 20 C2 14.72 2 9.44 2 4 C1.34 3.67 0.68 3.34 0 3 C0 2.01 0 1.02 0 0 Z " fill="#DA6E50" transform="translate(98,77)"/>
<path d="M0 0 C-0.33 0.66 -0.66 1.32 -1 2 C-2.32 2 -3.64 2 -5 2 C-5 2.66 -5 3.32 -5 4 C-5.66 4 -6.32 4 -7 4 C-9.30088444 7.66526854 -9.30912189 10.90429039 -9.4140625 15.171875 C-9.43342865 15.8542926 -9.4527948 16.53671021 -9.4727478 17.23980713 C-9.53231098 19.40974608 -9.57883446 21.57973877 -9.625 23.75 C-9.66320131 25.22528297 -9.7022543 26.70054415 -9.7421875 28.17578125 C-9.83799235 31.78365418 -9.92210916 35.39169083 -10 39 C-10.33 39 -10.66 39 -11 39 C-11.09915614 34.39190905 -11.17160182 29.78444408 -11.21972656 25.17553711 C-11.23979558 23.60902077 -11.26705751 22.04257891 -11.30175781 20.47631836 C-11.35048754 18.21970206 -11.3730147 15.96407917 -11.390625 13.70703125 C-11.41127014 13.01100296 -11.43191528 12.31497467 -11.45318604 11.59785461 C-11.45483032 8.00418065 -11.08015358 6.12318719 -9.10058594 3.08081055 C-5.98292653 -0.00749851 -4.27907041 -0.11260712 0 0 Z " fill="#C27F59" transform="translate(73,81)"/>
<path d="M0 0 C0.33 0.99 0.66 1.98 1 3 C2.65 3 4.3 3 6 3 C6.04241723 5.33294775 6.04092937 7.66702567 6 10 C5.67 10.33 5.34 10.66 5 11 C4.60006314 13.68862664 4.24865457 16.36352217 3.9375 19.0625 C3.84662109 19.82111328 3.75574219 20.57972656 3.66210938 21.36132812 C3.4375626 23.2404301 3.21829022 25.12016095 3 27 C2.67 27 2.34 27 2 27 C2.03480469 25.77023438 2.06960937 24.54046875 2.10546875 23.2734375 C2.13362045 21.64063873 2.16091913 20.0078251 2.1875 18.375 C2.21263672 17.56675781 2.23777344 16.75851563 2.26367188 15.92578125 C2.32609167 10.8073583 1.73882197 7.48421733 -1 3 C-1.33 2.34 -1.66 1.68 -2 1 C-1.34 0.67 -0.68 0.34 0 0 Z " fill="#131F3F" transform="translate(155,71)"/>
<path d="M0 0 C4.15151338 1.44202476 7.29978445 3.5010438 10.8125 6.125 C11.78832031 6.84945313 12.76414063 7.57390625 13.76953125 8.3203125 C14.50558594 8.87460937 15.24164063 9.42890625 16 10 C15.67 10.66 15.34 11.32 15 12 C13.02 11.34 11.04 10.68 9 10 C9 9.34 9 8.68 9 8 C8.2575 7.731875 7.515 7.46375 6.75 7.1875 C4.09090121 6.0392528 2.12218515 4.96498625 0 3 C0 2.01 0 1.02 0 0 Z " fill="#13203D" transform="translate(123,18)"/>
<path d="M0 0 C1.73152958 1.07955259 3.46011684 2.16382512 5.1875 3.25 C6.15042969 3.85328125 7.11335937 4.4565625 8.10546875 5.078125 C10.87405327 6.91637545 13.43957951 8.88425949 16 11 C15.67 11.66 15.34 12.32 15 13 C12.61554963 11.80777482 10.24047042 10.60504462 7.875 9.375 C5.23043646 7.8561815 5.23043646 7.8561815 3 8 C0 2.25 0 2.25 0 0 Z " fill="#142140" transform="translate(187,60)"/>
<path d="M0 0 C0 0.66 0 1.32 0 2 C-7.59 3.65 -15.18 5.3 -23 7 C-22.34 5.68 -21.68 4.36 -21 3 C-18.13302157 2.2046064 -15.54689952 1.66256056 -12.625 1.25 C-11.47257812 1.06244141 -11.47257812 1.06244141 -10.296875 0.87109375 C-6.78017533 0.3174265 -3.58118082 0 0 0 Z " fill="#1B2F4D" transform="translate(120,179)"/>
<path d="M0 0 C1.32 0.66 2.64 1.32 4 2 C2.77023438 2.81404297 2.77023438 2.81404297 1.515625 3.64453125 C0.43796875 4.35996094 -0.6396875 5.07539062 -1.75 5.8125 C-2.81734375 6.52019531 -3.8846875 7.22789063 -4.984375 7.95703125 C-7.3792991 9.57949926 -9.70833498 11.23675289 -12 13 C-12.66 12.67 -13.32 12.34 -14 12 C-11.10853541 7.99643364 -8.17355612 5.60847257 -4 3 C-2.65824027 2.01133494 -1.32103998 1.0161846 0 0 Z " fill="#101E3B" transform="translate(88,44)"/>
<path d="M0 0 C0.66 0.33 1.32 0.66 2 1 C-1.22079394 4.90135482 -3.59703745 5.61695197 -8.5625 6.1875 C-13.35393646 6.76470766 -13.35393646 6.76470766 -18 8 C-18 5 -18 5 -17 3 C-12.71 3.33 -8.42 3.66 -4 4 C-4 3.34 -4 2.68 -4 2 C-2.125 0.9375 -2.125 0.9375 0 0 Z " fill="#13213B" transform="translate(203,81)"/>
<path d="M0 0 C0 3 0 3 -1.5625 4.625 C-4.67270734 6.37947593 -7.47344754 6.66090842 -11 7 C-11 7.66 -11 8.32 -11 9 C-12.65 9.66 -14.3 10.32 -16 11 C-16.33 10.01 -16.66 9.02 -17 8 C-14.36834852 5.36834852 -11.38630762 4.59627185 -7.9375 3.4375 C-3.64035367 2.26792089 -3.64035367 2.26792089 0 0 Z " fill="#182F4D" transform="translate(54,179)"/>
<path d="M0 0 C2.97 0 5.94 0 9 0 C1.41407644 3.79296178 -6.62439542 4.27460999 -15 4 C-15.33 3.34 -15.66 2.68 -16 2 C-10.39436958 1.17377329 -5.57710648 0.93204344 0 2 C0 1.34 0 0.68 0 0 Z " fill="#AD7355" transform="translate(83,165)"/>
<path d="M0 0 C0.33 0 0.66 0 1 0 C1.0246985 3.95099928 1.04285923 7.90196874 1.05493164 11.85302734 C1.06244036 13.85906551 1.0751447 15.86508202 1.08789062 17.87109375 C1.09111328 19.12792969 1.09433594 20.38476562 1.09765625 21.6796875 C1.10289307 22.84226074 1.10812988 24.00483398 1.11352539 25.20263672 C1 28 1 28 0 30 C0.66 30 1.32 30 2 30 C1.67 30.66 1.34 31.32 1 32 C-0.65 31.67 -2.3 31.34 -4 31 C-4 30.01 -4 29.02 -4 28 C-3.01 27.67 -2.02 27.34 -1 27 C-0.67 18.09 -0.34 9.18 0 0 Z " fill="#DA773A" transform="translate(98,87)"/>
<path d="M0 0 C1.39456452 0.00667256 2.78911118 0.01863093 4.18359375 0.03515625 C4.89451172 0.03966797 5.60542969 0.04417969 6.33789062 0.04882812 C8.09899388 0.06064761 9.86005411 0.07858362 11.62109375 0.09765625 C11.62109375 0.42765625 11.62109375 0.75765625 11.62109375 1.09765625 C9.97109375 1.42765625 8.32109375 1.75765625 6.62109375 2.09765625 C6.62109375 2.42765625 6.62109375 2.75765625 6.62109375 3.09765625 C2.33109375 3.75765625 -1.95890625 4.41765625 -6.37890625 5.09765625 C-3.88623763 0.11231901 -3.88623763 0.11231901 0 0 Z " fill="#B77D5B" transform="translate(69.37890625,123.90234375)"/>
<path d="M0 0 C4.2502731 2.02393957 8.20686071 4.20030195 12 7 C12 7.66 12 8.32 12 9 C12.99 9 13.98 9 15 9 C14.67 9.99 14.34 10.98 14 12 C9.0761734 9.28687106 4.40546643 6.50639165 0 3 C0 2.01 0 1.02 0 0 Z " fill="#101D37" transform="translate(139,60)"/>
<path d="M0 0 C0.53625 0.2475 1.0725 0.495 1.625 0.75 C0.635 1.08 -0.355 1.41 -1.375 1.75 C-1.375 2.41 -1.375 3.07 -1.375 3.75 C-2.984375 5.0390625 -2.984375 5.0390625 -5.125 6.375 C-5.82109375 6.82101563 -6.5171875 7.26703125 -7.234375 7.7265625 C-9.375 8.75 -9.375 8.75 -13.375 8.75 C-4.64893617 -0.4893617 -4.64893617 -0.4893617 0 0 Z " fill="#101C3A" transform="translate(34.375,51.25)"/>
<path d="M0 0 C0.66 0.99 1.32 1.98 2 3 C1.34 3.45375 0.68 3.9075 0 4.375 C-0.99 5.179375 -0.99 5.179375 -2 6 C-2 6.66 -2 7.32 -2 8 C-1.34 8.66 -0.68 9.32 0 10 C-0.99 10.495 -0.99 10.495 -2 11 C-4.625 9.5625 -4.625 9.5625 -7 8 C-5.50902342 4.2047869 -3.24299151 2.38957269 0 0 Z " fill="#1A2C4B" transform="translate(20,196)"/>
<path d="M0 0 C0.33 0 0.66 0 1 0 C1 1.98 1 3.96 1 6 C1.66 6.33 2.32 6.66 3 7 C4 8 5 9 6 10 C6.99 10.66 7.98 11.32 9 12 C4.9715651 12.18311068 2.51624755 11.94158017 -1 10 C-1.02689216 8.52093108 -1.04634621 7.04172517 -1.0625 5.5625 C-1.07410156 4.73878906 -1.08570313 3.91507813 -1.09765625 3.06640625 C-1 1 -1 1 0 0 Z " fill="#1A2741" transform="translate(159,150)"/>
<path d="M0 0 C0.66 0.33 1.32 0.66 2 1 C0.1875 3 0.1875 3 -2 5 C-2.99 5 -3.98 5 -5 5 C-5 6.32 -5 7.64 -5 9 C-5.66 9.66 -6.32 10.32 -7 11 C-7.99 10.34 -8.98 9.68 -10 9 C-10.66 8.67 -11.32 8.34 -12 8 C-8.04 5.36 -4.08 2.72 0 0 Z " fill="#101C38" transform="translate(52,38)"/>
<path d="M0 0 C1.65 0 3.3 0 5 0 C5.33 0.99 5.66 1.98 6 3 C3.20807795 3.05380578 0.4171859 3.09357669 -2.375 3.125 C-3.1690625 3.14175781 -3.963125 3.15851563 -4.78125 3.17578125 C-6.85492015 3.19335473 -8.92883241 3.10335168 -11 3 C-11.66 2.34 -12.32 1.68 -13 1 C-8.48382401 0.92345464 -4.40914783 0.89771304 0 2 C0 1.34 0 0.68 0 0 Z " fill="#C7693C" transform="translate(123,123)"/>
<path d="M0 0 C0.33 0.99 0.66 1.98 1 3 C1.66 3 2.32 3 3 3 C3 3.66 3 4.32 3 5 C1.35 5 -0.3 5 -2 5 C-2.33 4.34 -2.66 3.68 -3 3 C-6.3 3.33 -9.6 3.66 -13 4 C-12.67 3.01 -12.34 2.02 -12 1 C-10.37512529 0.83211627 -8.75009558 0.66573213 -7.125 0.5 C-6.22007813 0.4071875 -5.31515625 0.314375 -4.3828125 0.21875 C-2 0 -2 0 0 0 Z " fill="#AF755A" transform="translate(131,121)"/>
<path d="M0 0 C1.91697937 0.14166357 3.83357723 0.28849584 5.75 0.4375 C7.35101563 0.55931641 7.35101563 0.55931641 8.984375 0.68359375 C11.43679962 0.94090773 13.63921291 1.31812218 16 2 C16 2.66 16 3.32 16 4 C10.63108121 3.50130596 5.30764827 2.97772468 0 2 C0 1.34 0 0.68 0 0 Z " fill="#C37B52" transform="translate(113,77)"/>
<path d="M0 0 C-2.83895848 1.42917955 -5.68444737 2.83856501 -8.5625 4.1875 C-9.32691406 4.55230469 -10.09132813 4.91710937 -10.87890625 5.29296875 C-13 6 -13 6 -16 5 C-11.83245968 -0.09366039 -6.19073701 -0.24762948 0 0 Z " fill="#1A2C48" transform="translate(75,193)"/>
<path d="M0 0 C3.375 0.25 3.375 0.25 7 1 C8.4375 3.0625 8.4375 3.0625 9 5 C5.79937313 6.60031344 3.27728194 5.03173691 0 4 C0 2.68 0 1.36 0 0 Z " fill="#C37B52" transform="translate(92,124)"/>
<path d="M0 0 C0.66 0.99 1.32 1.98 2 3 C-2.95 5.97 -2.95 5.97 -8 9 C-8 7.68 -8 6.36 -8 5 C-5.38057797 2.52216835 -3.43004815 1.14334938 0 0 Z " fill="#122239" transform="translate(100,36)"/>
<path d="M0 0 C4.95 0.33 9.9 0.66 15 1 C15 1.33 15 1.66 15 2 C11.7 2.33 8.4 2.66 5 3 C4.67 3.99 4.34 4.98 4 6 C1.7522025 3.94766315 0.9977758 2.99332739 0 0 Z " fill="#162A49" transform="translate(165,166)"/>
<path d="M0 0 C0.33 0.66 0.66 1.32 1 2 C3.02463255 2.65213292 3.02463255 2.65213292 5 3 C5 3.66 5 4.32 5 5 C0.05 4.67 -4.9 4.34 -10 4 C-10 3.67 -10 3.34 -10 3 C-8.72125 2.87625 -7.4425 2.7525 -6.125 2.625 C-2.65209064 2.30957601 -2.65209064 2.30957601 0 0 Z " fill="#203247" transform="translate(198,170)"/>
<path d="M0 0 C1.60517097 0.08733576 3.20921662 0.19552224 4.8125 0.3125 C6.15248047 0.39951172 6.15248047 0.39951172 7.51953125 0.48828125 C10.32671925 1.06740192 11.30697846 1.7220142 13 4 C13 4.66 13 5.32 13 6 C11.39253944 5.57476184 9.78910164 5.13429874 8.1875 4.6875 C7.29417969 4.44386719 6.40085938 4.20023437 5.48046875 3.94921875 C2.94752262 2.9799181 1.7283504 2.04990396 0 0 Z " fill="#C27F5B" transform="translate(130,80)"/>
<path d="M0 0 C0.99 0 1.98 0 3 0 C2.67 4.62 2.34 9.24 2 14 C0.29094502 10.58189003 -0.32287711 8.92884181 -0.6875 5.3125 C-0.77386719 4.52488281 -0.86023438 3.73726562 -0.94921875 2.92578125 C-0.96597656 2.29027344 -0.98273438 1.65476563 -1 1 C-0.67 0.67 -0.34 0.34 0 0 Z " fill="#C56239" transform="translate(105,128)"/>
<path d="M0 0 C5.37305699 0.2642487 5.37305699 0.2642487 8 1 C10 3.5625 10 3.5625 11 6 C8.03 5.505 8.03 5.505 5 5 C5 4.34 5 3.68 5 3 C3.35 2.67 1.7 2.34 0 2 C0 1.34 0 0.68 0 0 Z " fill="#C7714F" transform="translate(134,124)"/>
<path d="M0 0 C0.928125 0.2784375 0.928125 0.2784375 1.875 0.5625 C4.04160178 1.23686176 4.04160178 1.23686176 6 0 C8.3494053 0.60760482 10.68529088 1.27129528 13 2 C12.34 3.32 11.68 4.64 11 6 C10.67 5.34 10.34 4.68 10 4 C7.97399825 3.77488869 5.94540724 3.5559122 3.91015625 3.44140625 C2 3 2 3 0 0 Z " fill="#0E1B37" transform="translate(9,84)"/>
<path d="M0 0 C1.3410477 0.75733274 2.67269781 1.53132736 4 2.3125 C5.11375 2.95638672 5.11375 2.95638672 6.25 3.61328125 C6.8275 4.07089844 7.405 4.52851562 8 5 C8 5.99 8 6.98 8 8 C7.401875 7.67 6.80375 7.34 6.1875 7 C3.94613529 5.79212012 3.94613529 5.79212012 1 6 C0.67 6 0.34 6 0 6 C0 4.02 0 2.04 0 0 Z " fill="#142240" transform="translate(146,33)"/>
<path d="M0 0 C0.99 0.99 1.98 1.98 3 3 C2.67 3.33 2.34 3.66 2 4 C1.60006314 6.68862664 1.24865457 9.36352217 0.9375 12.0625 C0.84662109 12.82111328 0.75574219 13.57972656 0.66210938 14.36132812 C0.4375626 16.2404301 0.21829022 18.12016095 0 20 C-0.33 20 -0.66 20 -1 20 C-0.67 13.4 -0.34 6.8 0 0 Z " fill="#182034" transform="translate(158,78)"/>
<path d="M0 0 C2.97 0 5.94 0 9 0 C9.33 0.66 9.66 1.32 10 2 C2.57142857 3.28571429 2.57142857 3.28571429 -1 2 C-0.67 1.34 -0.34 0.68 0 0 Z " fill="#D05435" transform="translate(71,121)"/>
<path d="M0 0 C0 1.32 0 2.64 0 4 C-3.37462715 3.45276317 -5.08235 2.9451 -8 1 C-2.25 -1.125 -2.25 -1.125 0 0 Z " fill="#152852" transform="translate(28,206)"/>
<path d="M0 0 C-3.0469629 1.69433918 -5.82821466 2.49467112 -9.25 3.125 C-10.58804688 3.37636719 -10.58804688 3.37636719 -11.953125 3.6328125 C-12.62859375 3.75398437 -13.3040625 3.87515625 -14 4 C-9.75202571 0.60162057 -5.42762005 -1.80920668 0 0 Z " fill="#1C2F52" transform="translate(95,186)"/>
<path d="M0 0 C-0.33 0.99 -0.66 1.98 -1 3 C-5.455 3.495 -5.455 3.495 -10 4 C-10 3.34 -10 2.68 -10 2 C-6.49223216 0.39644899 -3.85645121 -0.22036864 0 0 Z " fill="#1C335E" transform="translate(172,172)"/>
<path d="M0 0 C0.99 0.33 1.98 0.66 3 1 C-0.28804981 3.91227269 -2.59885603 5.49701212 -7 6 C-2.25 1.125 -2.25 1.125 0 0 Z " fill="#0F1830" transform="translate(67,28)"/>
<path d="M0 0 C-0.33 0.99 -0.66 1.98 -1 3 C-4.3 3 -7.6 3 -11 3 C-7.75987532 -0.24012468 -4.46544827 0 0 0 Z " fill="#BA7752" transform="translate(86,78)"/>
<path d="M0 0 C1.32 0.66 2.64 1.32 4 2 C-0.455 4.97 -0.455 4.97 -5 8 C-5.66 7.34 -6.32 6.68 -7 6 C-5.35 5.34 -3.7 4.68 -2 4 C-2 3.34 -2 2.68 -2 2 C-1.34 2 -0.68 2 0 2 C0 1.34 0 0.68 0 0 Z " fill="#121F38" transform="translate(64,61)"/>
<path d="M0 0 C0.66 0.99 1.32 1.98 2 3 C-3.5 6.125 -3.5 6.125 -8 5 C-4.04 2.525 -4.04 2.525 0 0 Z " fill="#0C1737" transform="translate(91,12)"/>
<path d="M0 0 C0.33 0.99 0.66 1.98 1 3 C-1.875 3.1875 -1.875 3.1875 -5 3 C-5.66 2.01 -6.32 1.02 -7 0 C-3.89953913 -1.03348696 -2.94389782 -1.17755913 0 0 Z " fill="#BC785D" transform="translate(70,120)"/>
<path d="M0 0 C3.3 0.66 6.6 1.32 10 2 C10 2.33 10 2.66 10 3 C7.02148438 3.34179688 7.02148438 3.34179688 4.04296875 3.68359375 C1.80603607 3.97170735 1.80603607 3.97170735 -1 5 C-1 2 -1 2 0 0 Z " fill="#09112A" transform="translate(186,84)"/>
<path d="M0 0 C0.33 0.66 0.66 1.32 1 2 C1.66 2.33 2.32 2.66 3 3 C0.36 3.99 -2.28 4.98 -5 6 C-5.66 5.34 -6.32 4.68 -7 4 C-4.69 2.68 -2.38 1.36 0 0 Z " fill="#1A273E" transform="translate(41,175)"/>
<path d="M0 0 C0.33 0 0.66 0 1 0 C1 5.28 1 10.56 1 16 C0.67 15.01 0.34 14.02 0 13 C-0.66 13 -1.32 13 -2 13 C-1.34 8.71 -0.68 4.42 0 0 Z " fill="#C66538" transform="translate(106,143)"/>
<path d="M0 0 C0.33 0 0.66 0 1 0 C1 4.62 1 9.24 1 14 C-0.32 14.33 -1.64 14.66 -3 15 C-3 14.34 -3 13.68 -3 13 C-2.34 12.67 -1.68 12.34 -1 12 C-0.53101037 9.1840151 -0.53101037 9.1840151 -0.375 5.9375 C-0.30023438 4.83277344 -0.22546875 3.72804687 -0.1484375 2.58984375 C-0.09945312 1.73519531 -0.05046875 0.88054687 0 0 Z " fill="#BE845F" transform="translate(143,146)"/>
<path d="M0 0 C3.465 1.98 3.465 1.98 7 4 C6.67 4.99 6.34 5.98 6 7 C3.53199953 5.84826645 1.95216435 4.95216435 0 3 C0 2.01 0 1.02 0 0 Z " fill="#101D37" transform="translate(196,66)"/>
<path d="M0 0 C-0.33 0.99 -0.66 1.98 -1 3 C-2.65 3.33 -4.3 3.66 -6 4 C-6 2.68 -6 1.36 -6 0 C-2.25 -1.125 -2.25 -1.125 0 0 Z " fill="#1B385D" transform="translate(28,195)"/>
<path d="M0 0 C0.66 0 1.32 0 2 0 C2.66 0.99 3.32 1.98 4 3 C6.05003955 4.19232613 6.05003955 4.19232613 8 5 C5.6875 5.6875 5.6875 5.6875 3 6 C1.1875 4.75 1.1875 4.75 0 3 C0 2.01 0 1.02 0 0 Z " fill="#BF8862" transform="translate(62,162)"/>
<path d="M0 0 C0 0.66 0 1.32 0 2 C-2.31 2.33 -4.62 2.66 -7 3 C-7.33 2.34 -7.66 1.68 -8 1 C-5.29120665 -0.35439668 -2.99066732 -0.06501451 0 0 Z " fill="#C47356" transform="translate(143,120)"/>
<path d="M0 0 C2.35448165 2.55068845 2.98327924 3.71017358 3.1875 7.25 C3.125625 8.1575 3.06375 9.065 3 10 C2.34 9.67 1.68 9.34 1 9 C0.5859375 6.93359375 0.5859375 6.93359375 0.375 4.4375 C0.30023438 3.61121094 0.22546875 2.78492187 0.1484375 1.93359375 C0.09945312 1.29550781 0.05046875 0.65742187 0 0 Z " fill="#09112B" transform="translate(203,71)"/>
<path d="M0 0 C0.598125 0.20625 1.19625 0.4125 1.8125 0.625 C-0.36174117 3.12537734 -1.91795798 4.06128586 -5.1875 4.625 C-5.1875 3.635 -5.1875 2.645 -5.1875 1.625 C-2.1875 -0.375 -2.1875 -0.375 0 0 Z " fill="#0F1831" transform="translate(19.1875,61.375)"/>
<path d="M0 0 C0.99 0 1.98 0 3 0 C3 0.99 3 1.98 3 3 C1.35 3.66 -0.3 4.32 -2 5 C-2 2 -2 2 0 0 Z " fill="#0E1C36" transform="translate(57,34)"/>
<path d="M0 0 C2.91517292 1.07401108 4.77810176 1.77810176 7 4 C4 5 4 5 1 4 C0.3125 1.9375 0.3125 1.9375 0 0 Z " fill="#121C38" transform="translate(139,29)"/>
<path d="M0 0 C0.33 0.99 0.66 1.98 1 3 C1.66 3 2.32 3 3 3 C3 3.66 3 4.32 3 5 C4.98 5 6.96 5 9 5 C9 5.33 9 5.66 9 6 C2.84765625 6.09765625 2.84765625 6.09765625 1 6 C0 5 0 5 -0.0625 2.4375 C-0.041875 1.633125 -0.02125 0.82875 0 0 Z " fill="#BD7446" transform="translate(105,156)"/>
<path d="M0 0 C3.68754757 0.49831724 5.60490662 1.10067643 8 4 C2.25 4.125 2.25 4.125 0 3 C0 2.01 0 1.02 0 0 Z " fill="#0E1B32" transform="translate(160,158)"/>
<path d="M0 0 C4.875 4.625 4.875 4.625 6 8 C5.01 8 4.02 8 3 8 C0.19744677 5.0936485 0 4.21174952 0 0 Z " fill="#C68C57" transform="translate(105,114)"/>
<path d="M0 0 C2 1 2 1 2 1 Z " fill="#272730" transform="translate(32,184)"/>
<path d="" fill="#000000" transform="translate(0,0)"/>
<path d="" fill="#000000" transform="translate(0,0)"/>
<path d="" fill="#404040" transform="translate(0,0)"/>
<path d="" fill="#000000" transform="translate(0,0)"/>
<path d="" fill="#404040" transform="translate(0,0)"/>
<path d="" fill="#000000" transform="translate(0,0)"/>
<path d="" fill="#000000" transform="translate(0,0)"/>
<path d="" fill="#000000" transform="translate(0,0)"/>
<path d="" fill="#000000" transform="translate(0,0)"/>
<path d="" fill="#000000" transform="translate(0,0)"/>
<path d="" fill="#000040" transform="translate(0,0)"/>
<path d="" fill="#000000" transform="translate(0,0)"/>
<path d="" fill="#000000" transform="translate(0,0)"/>
<path d="" fill="#000000" transform="translate(0,0)"/>
<path d="" fill="#000000" transform="translate(0,0)"/>
<path d="" fill="#000000" transform="translate(0,0)"/>
</svg>
